<?xml version="1.0" encoding="utf-8"?>
<!-- Generator: Adobe Illustrator 24.0.0, SVG Export Plug-In . SVG Version: 6.00 Build 0)  -->
<svg version="1.1" id="Layer_1" xmlns="http://www.w3.org/2000/svg" xmlns:xlink="http://www.w3.org/1999/xlink" x="0px" y="0px"
	 viewBox="0 0 187 43" style="enable-background:new 0 0 187 43;" xml:space="preserve">
<style type="text/css">
	.st0{fill:url(#SVGID_1_);}
	.st1{fill:url(#SVGID_2_);}
	.st2{fill:url(#SVGID_3_);}
	.st3{fill:url(#SVGID_4_);}
	.st4{fill:url(#SVGID_5_);}
	.st5{fill:url(#SVGID_6_);}
	.st6{fill:url(#SVGID_7_);}
	.st7{fill:url(#SVGID_8_);}
	.st8{fill:url(#SVGID_9_);}
	.st9{fill:url(#SVGID_10_);}
	.st10{fill:url(#SVGID_11_);}
	.st11{fill:url(#SVGID_12_);}
	.st12{fill:url(#SVGID_13_);}
	.st13{fill:url(#SVGID_14_);}
	.st14{fill:url(#SVGID_15_);}
	.st15{fill:url(#SVGID_16_);}
	.st16{fill:url(#SVGID_17_);}
	.st17{fill:url(#SVGID_18_);}
	.st18{fill:url(#SVGID_19_);}
	.st19{fill:url(#SVGID_20_);}
	.st20{fill:url(#SVGID_21_);}
	.st21{fill:url(#SVGID_22_);}
	.st22{fill:url(#SVGID_23_);}
	.st23{fill:url(#SVGID_24_);}
	.st24{fill:url(#SVGID_25_);}
	.st25{fill:url(#SVGID_26_);}
	.st26{fill:url(#SVGID_27_);}
	.st27{fill:url(#SVGID_28_);}
	.st28{fill:url(#SVGID_29_);}
	.st29{fill:url(#SVGID_30_);}
	.st30{fill:url(#SVGID_31_);}
	.st31{fill:url(#SVGID_32_);}
	.st32{fill:url(#SVGID_33_);}
	.st33{fill:url(#SVGID_34_);}
	.st34{fill:url(#SVGID_35_);}
	.st35{fill:url(#SVGID_36_);}
	.st36{fill:#FFFFFF;}
	.st37{fill:#1C2629;}
	.st38{fill:#EAE8E3;}
	.st39{fill:#F5F3EF;}
	.st40{fill:#F2F2F2;}
	.st41{fill:#FEFEFD;}
	.st42{fill:#D1BB8A;}
	.st43{fill:#B4BCC7;}
	.st44{fill:#C0C4CB;}
	.st45{fill:#4B4C46;}
	.st46{fill:#5D6365;}
	.st47{fill:#444B49;}
	.st48{fill:#B4B8C1;}
	.st49{fill:#C8CDD9;}
	.st50{fill:#EAEEE6;}
	.st51{fill:#56584D;}
	.st52{fill:#B7B9C2;}
	.st53{fill:#53554B;}
	.st54{opacity:0.2;}
	.st55{fill:#4E5453;}
</style>
<g>
	<linearGradient id="SVGID_1_" gradientUnits="userSpaceOnUse" x1="21.639" y1="9.7126" x2="21.7752" y2="38.0571">
		<stop  offset="0" style="stop-color:#5CA1A9"/>
		<stop  offset="1" style="stop-color:#1278AA"/>
	</linearGradient>
	<path class="st0" d="M43.2,23.3C42.3,34.3,33,43,21.7,43S1.1,34.3,0.2,23.3H43.2z"/>
	<linearGradient id="SVGID_2_" gradientUnits="userSpaceOnUse" x1="0.1429" y1="11.5666" x2="43.2653" y2="11.5666">
		<stop  offset="0" style="stop-color:#5CA1A9"/>
		<stop  offset="1" style="stop-color:#69E2F0"/>
	</linearGradient>
	<path class="st1" d="M43.3,21.4c0,0.6,0,1.2-0.1,1.8h-43c0-0.6-0.1-1.2-0.1-1.8C0.1,9.5,9.8-0.1,21.7-0.1S43.3,9.5,43.3,21.4z"/>
	<g>
		<g>
			<linearGradient id="SVGID_3_" gradientUnits="userSpaceOnUse" x1="22.3566" y1="10.262" x2="28.6178" y2="10.262">
				<stop  offset="0" style="stop-color:#00305C"/>
				<stop  offset="1" style="stop-color:#1278AA"/>
			</linearGradient>
			<path class="st2" d="M28.6,10.3c0,0.1,0,0.2,0,0.2c-0.1,1.3-1.1,2.5-2.4,2.8c-1.3,0.3-2.7-0.3-3.4-1.4c-0.7-1.1-0.5-2.8,0.4-3.8
				c0.9-1,2.4-1.3,3.6-0.8C27.8,7.8,28.6,9,28.6,10.3z"/>
			<g>
				<linearGradient id="SVGID_4_" gradientUnits="userSpaceOnUse" x1="28.7999" y1="10.2395" x2="28.8342" y2="10.2395">
					<stop  offset="0" style="stop-color:#00305C"/>
					<stop  offset="1" style="stop-color:#1278AA"/>
				</linearGradient>
				<polygon class="st3" points="28.8,10.3 28.8,10.2 28.8,10.2 				"/>
				<linearGradient id="SVGID_5_" gradientUnits="userSpaceOnUse" x1="28.7187" y1="10.1439" x2="28.8277" y2="10.1439">
					<stop  offset="0" style="stop-color:#00305C"/>
					<stop  offset="1" style="stop-color:#1278AA"/>
				</linearGradient>
				<path class="st4" d="M28.7,10.1C28.7,10.1,28.7,10.1,28.7,10.1l0.1,0.1C28.9,10.1,28.7,10.1,28.7,10.1z"/>
				<linearGradient id="SVGID_6_" gradientUnits="userSpaceOnUse" x1="28.7055" y1="10.0352" x2="28.7523" y2="10.0352">
					<stop  offset="0" style="stop-color:#00305C"/>
					<stop  offset="1" style="stop-color:#1278AA"/>
				</linearGradient>
				<path class="st5" d="M28.7,10.1C28.8,10,28.7,10,28.7,10.1C28.7,10,28.7,10.1,28.7,10.1z"/>
				<linearGradient id="SVGID_7_" gradientUnits="userSpaceOnUse" x1="26.9909" y1="7.3726" x2="27.0027" y2="7.3726">
					<stop  offset="0" style="stop-color:#00305C"/>
					<stop  offset="1" style="stop-color:#1278AA"/>
				</linearGradient>
				<path class="st6" d="M27,7.4C27,7.4,27,7.4,27,7.4C27,7.4,27,7.4,27,7.4z"/>
				<linearGradient id="SVGID_8_" gradientUnits="userSpaceOnUse" x1="22.1922" y1="10.2169" x2="28.7745" y2="10.2169">
					<stop  offset="0" style="stop-color:#00305C"/>
					<stop  offset="1" style="stop-color:#1278AA"/>
				</linearGradient>
				<path class="st7" d="M26.1,7.2L26.1,7.2c0.2,0,0.3,0.1,0.5,0.2l0,0C27,7.5,27.3,7.7,27.6,8c0,0,0,0,0,0c0,0,0.1,0,0.1,0
					c0,0,0,0,0,0c0,0.1,0.1,0.1,0.1,0.1c0,0,0.1,0.1,0.1,0.1c0,0,0,0,0.1,0c0.2,0.3,0.4,0.6,0.6,0.9c0,0,0,0,0,0
					c0.2,0.2,0.2,0.6,0.3,0.9c0,0,0,0,0.1,0c0-0.1-0.1-0.2-0.1-0.3l0,0c0-0.1-0.1,0,0-0.1c0,0,0,0,0,0c0-0.1,0-0.1-0.1-0.2
					c0-0.1,0-0.1-0.1-0.2c0,0,0-0.1,0-0.2c0,0,0-0.1-0.1-0.1c-0.1-0.2-0.2-0.4-0.4-0.6C28,8.2,27.8,8,27.6,7.8
					c-0.1,0-0.2-0.1-0.3-0.2c-0.1-0.1-0.2-0.2-0.3-0.2c0,0,0,0,0,0c-0.1,0-0.2-0.1-0.3-0.1l-0.1,0C26.3,7.1,26,7,25.7,7
					c-0.3,0-0.6,0-1,0.1c-0.4,0.1-0.7,0.2-1,0.3c-0.3,0.2-0.6,0.4-0.8,0.7c0,0,0,0,0,0c-0.1,0.2-0.3,0.3-0.3,0.5l0,0
					c-0.1,0.2-0.2,0.4-0.3,0.7c-0.1,0.2-0.1,0.5-0.1,0.7c-0.1,0.5,0,1.2,0.3,1.7l0,0c0.1,0.1,0.1,0.2,0.2,0.3
					c0.1,0.1,0.1,0.2,0.2,0.3c0.1,0.2,0.3,0.4,0.5,0.5c0.2,0.2,0.4,0.3,0.6,0.4c0.2,0.1,0.5,0.1,0.7,0.2c0.1,0,0.1,0.1,0.2,0.1
					c0.1,0,0.2,0,0.3,0c0.1,0,0.2,0,0.3,0c0.1,0,0.2,0,0.2,0c0.3,0.1,0.6,0,0.9-0.1c0.3-0.1,0.5-0.3,0.7-0.5
					c0.2-0.1,0.4-0.3,0.6-0.5c0.2-0.2,0.3-0.4,0.5-0.6c0-0.1,0-0.1,0.1-0.2c0-0.1,0.1-0.1,0.1-0.2c0.1-0.1,0.1-0.2,0.2-0.4l0,0
					c0.1-0.1-0.1-0.2,0.1-0.3l0,0c0.1,0-0.1-0.1,0-0.2l0,0c0-0.1,0,0,0-0.1c0,0,0,0,0,0c0.1,0,0-0.1,0.1-0.2c0,0,0.1-0.1,0.1,0
					c0,0,0-0.1,0-0.1c-0.1,0-0.1,0-0.2,0l0,0c0,0,0,0-0.1,0c0,0.1-0.1,0.1-0.1,0.1c0,0,0,0,0,0c0.1,0,0,0.1,0,0.1l0,0
					c-0.1,0,0.1,0.1,0,0.1c0,0.2,0,0.3-0.1,0.5c0,0,0,0.1,0,0.1c-0.1,0-0.1,0.1-0.2,0.2c0,0,0,0,0,0c-0.1,0,0,0.1-0.1,0.2
					c0.1,0-0.1,0.1,0,0.2c0,0,0,0,0,0c0,0.1-0.1,0.1-0.2,0.2c-0.1,0.1-0.1,0.1-0.2,0.2c0,0.1-0.2,0.2-0.2,0.3
					c-0.1,0-0.2,0.1-0.3,0.2l0,0c-0.1,0.1-0.2,0.2-0.3,0.3c-0.1-0.1-0.1,0-0.2,0c0,0-0.1,0.1-0.1,0.1c-0.1,0-0.1,0.1-0.2,0.1
					c0,0-0.1,0.1-0.1,0c-0.2,0.1-0.4,0.2-0.6,0.2c-0.2,0-0.4,0-0.6-0.1l0,0c-0.1,0-0.1,0.1-0.2,0.1c0,0,0,0,0,0
					c-0.1,0-0.1-0.1-0.2-0.1c0,0,0,0,0,0c-0.1,0-0.1-0.1-0.2-0.1l0,0c0,0,0,0,0,0c0,0,0,0,0,0c0,0,0,0,0,0c-0.3-0.1-0.6-0.2-0.9-0.4
					c-0.3-0.2-0.5-0.4-0.7-0.6l0,0c0,0-0.1-0.1-0.1-0.1c0,0,0,0,0,0c0-0.1-0.1-0.1-0.1-0.2c0-0.1-0.1-0.1-0.1-0.2c0,0,0,0,0,0
					c-0.1-0.1,0-0.2-0.1-0.2c0,0,0,0,0,0c-0.1-0.3-0.2-0.6-0.2-0.9c-0.1-0.1-0.1-0.3,0-0.4c0-0.1,0-0.3,0-0.4l0,0
					c0-0.4,0.2-0.7,0.4-1.1c0.1-0.1,0.1-0.2,0.2-0.4l0,0c0-0.1,0.1-0.1,0.1-0.2c0.1,0,0.1-0.1,0.2-0.1c0.1-0.1,0.3-0.1,0.3-0.3l0,0
					c0-0.1,0.2-0.1,0.1-0.1l0.1,0c0.1-0.1,0.1-0.1,0.2-0.1c0.1,0,0.2,0,0.3-0.1l0,0c0.1,0,0.1-0.1,0.2-0.1c0,0,0,0,0,0
					c0.2,0,0.4-0.1,0.6-0.1l0,0c0.1-0.1,0.3,0,0.4,0l0,0l0.1,0l0,0C25.8,7.2,26,7.2,26.1,7.2z"/>
				<linearGradient id="SVGID_9_" gradientUnits="userSpaceOnUse" x1="27.6597" y1="8.0073" x2="27.6638" y2="8.0073">
					<stop  offset="0" style="stop-color:#00305C"/>
					<stop  offset="1" style="stop-color:#1278AA"/>
				</linearGradient>
				<path class="st8" d="M27.7,8C27.7,8,27.7,8,27.7,8C27.7,8,27.7,8,27.7,8z"/>
				<linearGradient id="SVGID_10_" gradientUnits="userSpaceOnUse" x1="28.4314" y1="10.4653" x2="28.4395" y2="10.4653">
					<stop  offset="0" style="stop-color:#00305C"/>
					<stop  offset="1" style="stop-color:#1278AA"/>
				</linearGradient>
				<path class="st9" d="M28.4,10.5C28.4,10.5,28.4,10.5,28.4,10.5C28.4,10.5,28.4,10.5,28.4,10.5z"/>
			</g>
		</g>
		<g>
			<g>
				<linearGradient id="SVGID_11_" gradientUnits="userSpaceOnUse" x1="4.4129" y1="13.3322" x2="19.7724" y2="13.3322">
					<stop  offset="0" style="stop-color:#00305C"/>
					<stop  offset="1" style="stop-color:#1278AA"/>
				</linearGradient>
				<path class="st10" d="M4.4,18.1c1.1-0.8,2.2-1.4,3-2.5c0.2-0.2,0.4-0.5,0.6-0.4c0.3-0.5,0.6-1.3,1.1-1.6
					c0.1-0.1,0.3-0.2,0.4-0.4c0.1-0.2,0.1-0.4,0.1-0.6c0.1-0.4,0.7-0.6,1-1c0.4-0.5,1.2-1.3,1.5-1.8c0.1,0.2,0.1,0.4,0.2,0.5
					c0.3-0.3,0.4-0.4,0.5-0.8c0-0.1,0.1-0.3,0.1-0.4c0.1-0.3,0.9-0.6,1-0.9c0.2-0.2,0.6,0,0.6-0.6c0.3-0.7,0.5-1.4,0.8-1.9
					c0.1,0.6-0.4,1.1,0,1.7c0.1,0.1,0.4,1.1,0.4,1.1s-0.6-0.5-0.7-0.4c-0.4,0.4-1,0.5-0.7,1c0.3,0.5,0.7,0.9,0.9,1.4
					c-0.2,0-0.4,0.1-0.6,0.1c0.6,0.6,1.5,2.1,1.5,2.1s-1.3-1-2-1.3c0,0.6,0,1.5,0.1,1.5c0.5,0.6,0.8,1.1,1.4,1.7
					c0.1,0.1,2,2.2,2,2.2l-1.9-1.4c0,0,0.8,1,0.8,1c0.9,1.1,2,1.5,3.1,2.3c-1.1-0.3-2.2-0.8-3.2-1.5c-0.1-0.1-0.8-0.5-0.8-0.5
					l0.3-0.4c0,0-1.6-2.6-2.6-3c-0.6-0.5-1-1.1-1.6-1.8c-0.3,0.3-1,2.4-0.9,2.9c0.1,0.4,0.4,0.8,0.7,1.1c-0.1,0.1-0.4,0.1-0.6,0
					c-0.2-0.1-0.3-0.3-0.5-0.3c-0.4,0-0.6,0.3-0.8,0.6c0,0.1-0.1,0.2-0.1,0.3c0,0.1,0.1,0.2,0.1,0.3c0.2,0.3,0.5,0.7,0.8,0.9
					c0.2,0.1,0.5,0.1,0.6,0.4c0,0.1,0,0.2,0,0.3c0,0.5,0.6,0.9,1,1.1c1,0.6,0.4,1.2,1.1,2.2c-1.1-0.2-0.5-0.4-1.3-1.1
					c-0.5-0.5-0.9-1-1.5-1.4c-0.5-0.3-1-0.5-1.3-0.9c-0.1-0.1-0.1-0.2-0.2-0.3c-0.1-0.1-0.2-0.2-0.3-0.3c-0.3-0.3-0.6-0.5-0.9-0.8
					c-0.1-0.1-0.1-0.1-0.2-0.1c-0.1,0-0.2,0-0.2,0.1c-0.9,0.7-1.9,1.3-2.8,2"/>
			</g>
			<linearGradient id="SVGID_12_" gradientUnits="userSpaceOnUse" x1="15.4525" y1="13.0492" x2="39.6884" y2="13.0492">
				<stop  offset="0" style="stop-color:#00305C"/>
				<stop  offset="1" style="stop-color:#1278AA"/>
			</linearGradient>
			<path class="st11" d="M34,17.3c-0.5-0.3-0.7-0.5-1.2-0.8c-0.6-0.3-0.5-0.5-1.1-0.8c-0.3-0.1-0.9-0.5-0.9-0.5l-0.2-0.3
				c0,0-0.5-0.8-0.8-0.9c-2.4-0.8-3.7-2.7-5.3-4.5c0,0-0.1,0-0.1,0c-0.2,0.4-0.7,0.8-0.7,1.2c-0.2,0.1-0.3,0.1-0.5,0.1
				c-0.3,0.5-0.7,1.1-1,1.5c0.1,0.1,0.3,0.2,0.3,0.2s2,3,2,3.1c-0.1,0-2-2.4-2-2.4l-0.2-0.4l-0.7-0.5c-0.3-0.3-0.3-0.4-0.6-0.8
				c-0.3-0.1-0.6-0.2-0.8-0.4c-0.1-0.1-0.1-0.2-0.1-0.3c-0.1-0.1-0.2-0.2-0.3-0.3c-1.4-1.1-1.3-1.2-2.7-2.3
				c-0.2-0.2-0.4-0.3-0.5-0.6C16.4,7,16,6,15.5,5.8l0,0c0.4,0.4,1,1.2,1,1.8c1.3,1.3,1,1.5,2.3,2.7c0.2,0.2,0.5,0.7,0.7,1.1
				c-0.1,0.1-0.8-0.2-0.8-0.2s1,0.7,1,1c0,0.2-0.6-0.1-0.7,0.1c0.2,0.2,1.1,0.8,1.5,1c0.4,0.2,1.4,1,2.1,1.5
				c0.3,0.2-0.3,0.7-0.1,0.9c0.5,0.4,0.9,0.8,1.1,1.1c-0.5,0-1.9-1.2-2.3-1.3c0.2,0.2,5.8,4.8,5.8,4.8s-0.9-2-0.8-2.2
				c-0.3-0.2-1.1-0.9-1.1-0.9s0.1-0.5,0.1-0.8c0.5,0.3,1.4,1.2,1.4,1.2S26.1,16.6,26,16c-0.5-0.6-1.4-1.8-1.4-1.8s0-0.3-0.2-0.5
				c0.3,0,0.4,0.1,0.4,0.1s0-0.7-0.1-1c0.3,0.4,0.7,0.8,1.8,1.8c-0.5-0.7-1-1.9-1.1-2c0-0.1-0.3-0.5-0.3-0.6c-0.2-0.6-0.4-1.3-0.4-2
				c0.6,0.9,1.3,1.7,2,2.5c0.4,0.4,1.9,1.4,1.9,1.4s0.7,0.1,1.2,0.5c0.1,0.1,0.3,0.3,0.3,0.3l-0.7,0.1c0,0,0.6,0.7,0.8,0.8
				c0.4,0.2,0.8,0.3,1.1,0.6c0.2,0,1.1,0.9,1.3,1.1c0.4,0.3,0.4,0.6,0.8,0.9c0.7,0.6,1.5,1.1,2.3,1.6c0.2,0.1,0.4,0.3,0.6,0.4
				c1,0.5,2.2,0.3,3.2,0C37.9,19,35.9,18.2,34,17.3z"/>
			<g>
				<linearGradient id="SVGID_13_" gradientUnits="userSpaceOnUse" x1="3.7228" y1="18.566" x2="8.9765" y2="18.566">
					<stop  offset="0" style="stop-color:#00305C"/>
					<stop  offset="1" style="stop-color:#1278AA"/>
				</linearGradient>
				<path class="st12" d="M8.8,16c0.1,0.8,0.1,1.5,0.2,2.3c0,0,0,0.1,0,0.1c0,0.1-0.1,0.1-0.1,0.1c-0.2,0.1-0.4,0.3-0.4,0.5
					c0,0.1,0,0.2,0,0.4c0.1,0.7,0.1,1.5,0.1,2.2c0,0,0,0.1,0,0.1c0,0.1-0.1,0.1-0.2,0.1c-0.1,0-0.2-0.1-0.2-0.1
					c-1.3-0.7-2.9-0.9-4.2-1.7c0,0-0.1,0-0.1-0.1c0-0.1,0-0.1,0-0.2c0.5-0.8,1.1-1.6,1.7-2.4c0.6-0.7,1.2-1.4,1.9-2
					c0.2-0.1,0.4-0.2,0.6-0.2c0.2,0.2,0.5,0.3,0.8,0.3"/>
			</g>
			<linearGradient id="SVGID_14_" gradientUnits="userSpaceOnUse" x1="28.5448" y1="13.7754" x2="31.7321" y2="13.7754">
				<stop  offset="0" style="stop-color:#00305C"/>
				<stop  offset="1" style="stop-color:#1278AA"/>
			</linearGradient>
			<polygon class="st13" points="29.5,14 28.5,13.4 29,13.2 29.9,12.1 30.5,11.5 30.6,11.8 30.8,12.5 31.5,13.4 31,13.1 30.4,12.4 
				29.9,13.4 30.4,14 30.7,14.3 31.2,15.2 31.7,15.7 31.7,16 30.3,15.3 30.3,14.7 30,14.2 			"/>
			<linearGradient id="SVGID_15_" gradientUnits="userSpaceOnUse" x1="30.6271" y1="15.0708" x2="37.9737" y2="15.0708">
				<stop  offset="0" style="stop-color:#00305C"/>
				<stop  offset="1" style="stop-color:#1278AA"/>
			</linearGradient>
			<polygon class="st14" points="30.6,11.7 32,13.8 34.5,15.7 37.4,18.4 38,17.8 34.6,15.4 32,13.5 			"/>
			<linearGradient id="SVGID_16_" gradientUnits="userSpaceOnUse" x1="34.0817" y1="15.5788" x2="35.4717" y2="15.5788">
				<stop  offset="0" style="stop-color:#00305C"/>
				<stop  offset="1" style="stop-color:#1278AA"/>
			</linearGradient>
			<path class="st15" d="M34.1,15.1c0,0,0.2-0.1,0.2-0.1l0.7,0.7l0.5,0.6"/>
		</g>
		<g>
			<g>
				<linearGradient id="SVGID_17_" gradientUnits="userSpaceOnUse" x1="9.1014" y1="23.8119" x2="38.3181" y2="23.8119">
					<stop  offset="0" style="stop-color:#00305C"/>
					<stop  offset="1" style="stop-color:#1278AA"/>
				</linearGradient>
				<path class="st16" d="M9.1,23.6c0-0.7,1-1.3,1.6-1c0.2,0.1,0.4,0.3,0.6,0.4c0.2,0.1,0.5,0.2,0.7,0c0.2-0.1,0.2-0.4,0.5-0.5
					c0.2-0.1,0.3,0,0.5,0.1c0.6,0.3,1.3,0.2,1.9,0c0.6-0.2,1.2-0.5,1.8-0.7c0.2,0,0.3-0.1,0.5,0c0.2,0.1,0.3,0.4,0.5,0.6
					c0.6,0.5,1.5-0.3,2.3-0.1c0.1,0,0.3,0.1,0.4,0.2c0.4,0.1,0.8,0,1.2-0.1c0.7-0.1,1.5,0.1,2.2,0.1c1.7,0.2,3.4-0.5,5.1-0.6
					c1.2-0.1,2.4-0.1,3.6,0c1.7,0.1,3.4,0.2,5.1,0.3c0.3,0,0.6,0.1,0.7,0.3c-1.3,0.7-2.7,1-4.2,1.3c-3.7,0.8-7.5,1.3-11.3,1.5
					c-3.4,0.2-6.8,0.2-10-0.7"/>
			</g>
			<g>
				<linearGradient id="SVGID_18_" gradientUnits="userSpaceOnUse" x1="1.3615" y1="18.2116" x2="9.6541" y2="18.2116">
					<stop  offset="0" style="stop-color:#00305C"/>
					<stop  offset="1" style="stop-color:#1278AA"/>
				</linearGradient>
				<path class="st17" d="M9.7,23c-0.2-0.1-0.3-0.2-0.5-0.2c0.1,0,0.1,0,0.2,0c-0.1,0-0.2-0.1-0.3-0.1c0.2,0,0.3,0,0.5-0.1
					c-0.1,0-0.3-0.1-0.4-0.2c0,0,0.1,0,0.1-0.1c-0.2,0-0.4-0.1-0.6-0.2c0,0,0,0,0,0c0.1,0,0.2,0,0.3,0c-0.2,0-0.3-0.1-0.5-0.2
					c0,0,0,0,0,0c0,0,0-0.1-0.1-0.1c0.1,0,0.3,0.1,0.4,0.1c-0.2-0.1-0.5-0.3-0.6-0.6c0.1,0,0.1,0,0.2,0c0.1,0,0.2,0,0.4,0
					c-0.1-0.1-0.2-0.2-0.3-0.2c0,0,0,0,0,0c0.2,0.1,0.4,0.1,0.6,0.2c-0.2-0.1-0.4-0.3-0.6-0.4c0.3,0.1,0.5,0.1,0.8,0.1
					C9,21,8.9,21,8.8,20.9c-0.2-0.1-0.4-0.2-0.6-0.4c0.2,0.1,0.4,0.1,0.6,0.1c-0.2,0-0.4-0.2-0.6-0.3c-0.1-0.1-0.2-0.1-0.3-0.2
					c0,0,0,0,0,0c0,0,0,0,0,0c0.2,0,0.4,0,0.6,0C8.3,20.1,7.8,20,7.8,20c0,0-0.1,0-0.1,0c0-0.1-0.1-0.1-0.1-0.1c0,0,0,0,0-0.1
					c0,0,0,0-0.1,0c0,0,0,0,0,0c0.1,0,0.2,0.1,0.4,0.1c-0.2-0.1-0.4-0.3-0.6-0.4c0,0,0,0,0,0c0-0.1-0.1-0.1-0.1-0.2
					c0.3,0.2,0.6,0.3,0.9,0.4c-0.3-0.2-0.6-0.4-0.8-0.8c0,0-0.1-0.1-0.1-0.1c0.1,0.1,0.3,0.1,0.4,0.1c-0.1-0.2-0.3-0.3-0.4-0.5
					c0.1,0,0.1,0,0.2,0c0,0,0.1,0,0.1,0.1c0.2,0.1,0.3,0.2,0.5,0.2c-0.1-0.1-0.2-0.2-0.3-0.3c0.3,0.2,0.6,0.3,0.9,0.4
					c-0.1-0.1-0.2-0.1-0.3-0.2c-0.1,0-0.1-0.1-0.2-0.1c-0.1-0.1-0.2-0.2-0.3-0.3c0.1,0.1,0.3,0.1,0.4,0.1C8,18.1,7.9,18,7.7,17.9
					c0,0-0.1-0.1-0.1-0.1c0.1,0,0.1,0,0.2,0c-0.1-0.1-0.2-0.1-0.3-0.2c0.1,0,0.1,0,0.2-0.1c-0.2-0.1-0.5-0.3-0.7-0.4
					c0,0,0.1-0.1,0.2-0.1c-0.2-0.1-0.4-0.3-0.6-0.6c0.2,0.2,0.4,0.3,0.7,0.4c-0.2-0.1-0.4-0.2-0.5-0.5c0,0,0,0,0.1,0c0,0,0,0,0.1,0
					c0.1,0.1,0.2,0.1,0.3,0.2c0.1,0,0.2,0,0.2,0.1c0.3,0,0.5,0.1,0.8,0.1c-0.3-0.1-0.5-0.3-0.8-0.5C7.2,16.1,7.1,16,7.1,16
					c0.1,0,0.2,0,0.2-0.1c0-0.1-0.3-0.1-0.3-0.1c-0.2-0.1-0.4-0.2-0.6-0.4c0.2,0.1,0.5,0.1,0.7,0.1c-0.3-0.2-0.6-0.4-0.8-0.6
					C6.4,15,6.6,15,6.9,15.1c-0.1-0.1-0.2-0.2-0.4-0.3C6.7,14.9,6.9,15,7.1,15c-0.2-0.1-0.3-0.2-0.5-0.3c0,0,0,0,0.1,0
					c0,0,0-0.1,0-0.1c-0.2-0.1-0.4-0.2-0.5-0.4c0.1,0,0.2,0,0.3,0c-0.2-0.1-0.4-0.2-0.5-0.3c0.1,0,0.3,0,0.4,0
					c-0.2-0.1-0.4-0.2-0.6-0.3c0.2,0.1,0.4,0.1,0.6,0.1c0,0,0,0,0-0.1c-0.1,0-0.2,0-0.3,0c0,0,0.1,0,0.1,0c-0.1-0.1-0.3-0.2-0.4-0.4
					c-0.1-0.1-0.1-0.2-0.2-0.3c0-0.1-0.1-0.2-0.1-0.2c0,0,0,0,0,0c0,0,0,0,0,0c0,0-0.1,0.1-0.1,0.2c-0.1,0.1-0.1,0.2-0.2,0.3
					c-0.1,0.2-0.3,0.3-0.4,0.4c0,0,0.1,0,0.1,0c0,0.1-0.2,0.1-0.3,0.2c0.3,0.1,0.5,0,0.8-0.2c-0.2,0.2-0.4,0.3-0.6,0.4
					c0.1,0,0.1,0,0.2,0c-0.1,0.1-0.3,0.2-0.4,0.3c0.1,0,0.1,0,0.2,0c-0.2,0.2-0.5,0.4-0.7,0.6c0.1,0,0.2-0.1,0.3-0.1
					c-0.1,0.1-0.2,0.1-0.3,0.2c0.1,0,0.1,0,0.2,0c0.2-0.1,0.4-0.2,0.6-0.3c-0.1,0.1-0.3,0.3-0.4,0.4c0,0,0.1,0,0.1,0
					c0.2-0.1,0.4-0.2,0.5-0.3c-0.2,0.1-0.3,0.3-0.5,0.5c0.1,0,0.2-0.1,0.2-0.1c-0.1,0.1-0.3,0.2-0.4,0.3c-0.1,0.1-0.3,0.2-0.4,0.2
					c0.1,0,0.2,0,0.3,0.1c-0.1,0-0.4,0.1-0.4,0.2c0,0.2,0.2,0.1,0.3,0.1c-0.1,0.1-0.2,0.1-0.3,0.2c0,0,0,0-0.1,0c0,0,0,0,0,0
					c-0.2,0.2-0.4,0.4-0.7,0.5c0.3,0,0.5,0,0.8-0.1c0.1,0,0.2,0,0.2-0.1c0.1,0,0.1-0.1,0.2-0.1c-0.1,0.1-0.3,0.3-0.4,0.4
					c0.3,0,0.5-0.1,0.7-0.4c-0.2,0.2-0.4,0.4-0.6,0.6C3.9,17,3.9,17,4,17c-0.2,0.2-0.5,0.3-0.7,0.4c0.1,0,0.1,0,0.2,0.1
					c-0.1,0.1-0.2,0.1-0.3,0.2c0.1,0,0.1,0,0.2,0c0,0-0.1,0.1-0.1,0.1c-0.2,0.1-0.3,0.2-0.5,0.4c0.1,0,0.3,0,0.4-0.1
					c0,0.1-0.1,0.1-0.1,0.2c-0.1,0-0.1,0.1-0.2,0.1c-0.1,0-0.1,0.1-0.2,0.1c-0.1,0.1-0.2,0.1-0.3,0.2c0.3,0,0.6-0.2,0.9-0.4
					c-0.1,0.1-0.2,0.2-0.3,0.3c0.2,0,0.3-0.2,0.5-0.2c0,0,0.1,0,0.1-0.1c0,0,0.1,0,0.1,0c-0.1,0.1-0.3,0.3-0.4,0.5
					c0.1,0,0.3,0,0.4-0.1c0,0-0.1,0.1-0.1,0.1c-0.2,0.3-0.5,0.6-0.8,0.8c0.1,0,0.2,0,0.2,0c0.1,0,0.2,0,0.2-0.1
					c0.1,0,0.3-0.2,0.4-0.2c-0.1,0.1-0.2,0.2-0.3,0.3c-0.3,0.3-0.7,0.5-1.1,0.7c0.2,0.1,0.4,0,0.6-0.1c-0.3,0.2-0.6,0.4-0.8,0.7
					C2,20.9,1.9,21,1.8,21c0.2,0,0.4,0,0.6,0c-0.1,0.1-0.2,0.2-0.4,0.3c0.2,0,0.4,0,0.6-0.1c-0.1,0.1-0.2,0.2-0.3,0.3
					c0.1,0.1,0.2,0.1,0.3,0.1c0.1,0,0.3,0,0.4-0.1c0.2-0.1-0.4,0.4-1,0.6c0.1,0,0.3,0.1,0.4,0.1c-0.2,0.1-0.4,0.2-0.7,0.2
					c0,0,0.1,0,0.1,0.1c-0.1,0.1-0.3,0.1-0.4,0.2c0.2,0.1,0.3,0.1,0.5,0.1c-0.1,0-0.2,0.1-0.3,0.1c0.1,0,0.1,0,0.2,0
					c-0.2,0.1-0.3,0.2-0.5,0.2C1.6,23,1.8,23,2,23c0,0-0.1,0.1-0.1,0.1c0.2,0,0.3-0.1,0.5-0.1c-0.1,0.1-0.2,0.2-0.4,0.3
					c0.3,0.1,0.6,0.1,0.9,0.1c0.1,0,0.3,0,0.4-0.1c0,0,0,0.1,0.1,0.1c0.1,0.1,0.2,0.1,0.3,0.1c0.4,0.1,0.9,0.1,1.3,0.2
					c0.2,0,0.4,0,0.6,0l0-0.1l0,0.1c0.2,0,0.4,0,0.6,0c0.4,0,0.9-0.1,1.3-0.2c0.1,0,0.2,0,0.3-0.1c0,0,0-0.1,0.1-0.1
					c0.1,0,0.3,0.1,0.4,0.1c0.3,0,0.6,0,0.9-0.1c-0.1-0.1-0.2-0.2-0.4-0.3C8.8,23,9,23.1,9.1,23.1C9.1,23,9.1,23,9,23
					C9.2,23,9.4,23,9.7,23z"/>
			</g>
			<g>
				<linearGradient id="SVGID_19_" gradientUnits="userSpaceOnUse" x1="7.1736" y1="20.4901" x2="15.4556" y2="20.4901">
					<stop  offset="0" style="stop-color:#00305C"/>
					<stop  offset="1" style="stop-color:#1278AA"/>
				</linearGradient>
				<path class="st18" d="M15.5,24.2c-0.2-0.1-0.3-0.1-0.5-0.2c0.1,0,0.1,0,0.2,0c-0.1,0-0.2-0.1-0.3-0.1c0.2,0,0.3,0,0.5-0.1
					c-0.1,0-0.3-0.1-0.4-0.1c0,0,0.1,0,0.1-0.1c-0.2,0-0.4-0.1-0.6-0.2c0,0,0,0,0,0c0.1,0,0.2,0,0.3,0c-0.2,0-0.3-0.1-0.5-0.2
					c0,0,0,0,0,0c0,0,0,0-0.1-0.1c0.1,0,0.3,0.1,0.4,0.1c-0.2-0.1-0.5-0.3-0.6-0.4c0.1,0,0.1,0,0.2,0c0.1,0,0.2,0,0.4,0
					c-0.1-0.1-0.2-0.1-0.3-0.2c0,0,0,0,0,0c0.2,0.1,0.4,0.1,0.6,0.1c-0.2-0.1-0.4-0.2-0.6-0.3c0.3,0.1,0.5,0.1,0.8,0.1
					c-0.1,0-0.2-0.1-0.3-0.1c-0.2-0.1-0.4-0.2-0.6-0.3c0.2,0.1,0.4,0.1,0.6,0.1c-0.2,0-0.4-0.1-0.6-0.2c-0.1,0-0.2-0.1-0.3-0.2
					c0,0,0,0,0,0c0,0,0,0,0,0c0.2,0,0.4,0,0.6,0c-0.2,0-0.7-0.2-0.7-0.2c0,0-0.1,0-0.1,0c0,0-0.1-0.1-0.1-0.1c0,0,0,0,0,0
					c0,0,0,0-0.1,0c0,0,0,0,0,0c0.1,0,0.2,0.1,0.4,0.1c-0.2-0.1-0.4-0.2-0.6-0.3c0,0-0.1-0.1-0.1-0.1c0.3,0.2,0.6,0.2,0.9,0.3
					c-0.3-0.2-0.6-0.3-0.8-0.6c0,0-0.1-0.1-0.1-0.1c0.1,0,0.3,0.1,0.4,0.1c-0.1-0.1-0.3-0.2-0.4-0.4c0.1,0,0.1,0,0.2,0
					c0,0,0.1,0,0.1,0c0.2,0.1,0.3,0.2,0.5,0.2c-0.1-0.1-0.2-0.1-0.3-0.2c0.3,0.1,0.6,0.2,0.9,0.3c-0.1-0.1-0.2-0.1-0.3-0.1
					c-0.1,0-0.1,0-0.2-0.1c-0.1-0.1-0.2-0.1-0.3-0.2c0.1,0.1,0.3,0.1,0.4,0.1c-0.2-0.1-0.3-0.2-0.5-0.3c0,0-0.1-0.1-0.1-0.1
					c0.1,0,0.1,0,0.2,0c-0.1-0.1-0.2-0.1-0.3-0.2c0.1,0,0.1,0,0.2-0.1c-0.2-0.1-0.5-0.2-0.7-0.3c0,0,0.1,0,0.2-0.1
					c-0.2-0.1-0.4-0.2-0.6-0.4c0.2,0.2,0.4,0.2,0.7,0.3c-0.2-0.1-0.4-0.2-0.5-0.4c0,0,0,0,0.1,0c0,0,0,0,0.1,0
					c0.1,0,0.2,0.1,0.3,0.1c0.1,0,0.2,0,0.2,0c0.3,0,0.5,0.1,0.8,0.1c-0.3-0.1-0.5-0.3-0.8-0.4c-0.1,0-0.2-0.1-0.2-0.1
					c0.1,0,0.2,0,0.2-0.1c0-0.1-0.3-0.1-0.3-0.1c-0.2-0.1-0.4-0.2-0.6-0.3c0.2,0.1,0.5,0.1,0.7,0.1c-0.3-0.2-0.6-0.3-0.8-0.5
					c0.2,0.1,0.4,0.1,0.6,0.1c-0.1-0.1-0.2-0.2-0.4-0.2c0.2,0.1,0.4,0.2,0.6,0.2c-0.2-0.1-0.3-0.2-0.4-0.3c0,0,0,0,0.1,0
					c0,0,0,0,0-0.1c-0.2-0.1-0.4-0.2-0.5-0.3c0.1,0,0.2,0,0.3,0c-0.2-0.1-0.4-0.2-0.5-0.3c0.1,0,0.3,0,0.4,0c-0.2,0-0.4-0.1-0.6-0.2
					c0.2,0.1,0.4,0.1,0.6,0.1c0,0,0,0,0,0c-0.1,0-0.2,0-0.3,0c0,0,0.1,0,0.1,0c-0.1-0.1-0.3-0.2-0.4-0.3c-0.1-0.1-0.1-0.1-0.2-0.2
					c0,0-0.1-0.1-0.1-0.1c0,0,0,0,0,0c0,0,0,0,0,0c0,0-0.1,0.1-0.1,0.1c-0.1,0.1-0.1,0.1-0.2,0.2c-0.1,0.1-0.3,0.2-0.4,0.3
					c0,0,0.1,0,0.1,0c0,0.1-0.2,0.1-0.3,0.1c0.3,0.1,0.5,0,0.8-0.1c-0.2,0.1-0.4,0.2-0.6,0.3c0.1,0,0.1,0,0.2,0
					c-0.1,0.1-0.3,0.2-0.4,0.2c0.1,0,0.1,0,0.2,0c-0.2,0.2-0.5,0.3-0.7,0.5c0.1,0,0.2-0.1,0.3-0.1c-0.1,0-0.2,0.1-0.3,0.1
					c0.1,0,0.1,0,0.2,0c0.2-0.1,0.4-0.2,0.6-0.2c-0.1,0.1-0.3,0.2-0.4,0.3c0,0,0.1,0,0.1,0c0.2-0.1,0.4-0.1,0.5-0.2
					c-0.2,0.1-0.3,0.2-0.5,0.4c0.1,0,0.2-0.1,0.2-0.1c-0.1,0-0.3,0.2-0.4,0.2c-0.1,0.1-0.3,0.1-0.4,0.2c0.1,0,0.2,0,0.3,0
					c-0.1,0-0.4,0.1-0.4,0.1c0,0.1,0.2,0.1,0.3,0c-0.1,0.1-0.2,0.1-0.3,0.2c0,0,0,0-0.1,0c0,0,0,0,0,0c-0.2,0.1-0.4,0.3-0.7,0.4
					c0.3,0,0.5,0,0.8-0.1c0.1,0,0.2,0,0.2,0c0.1,0,0.1-0.1,0.2-0.1c-0.1,0.1-0.3,0.2-0.4,0.3c0.3,0,0.5-0.1,0.7-0.3
					c-0.2,0.2-0.4,0.3-0.6,0.4c0.1,0,0.1,0,0.2,0.1c-0.2,0.1-0.5,0.2-0.7,0.3c0.1,0,0.1,0,0.2,0.1C9.2,20,9.1,20.1,9,20.1
					c0.1,0,0.1,0,0.2,0c0,0-0.1,0.1-0.1,0.1c-0.2,0.1-0.3,0.2-0.5,0.3c0.1,0,0.3,0,0.4-0.1c0,0.1-0.1,0.1-0.1,0.1
					c-0.1,0-0.1,0.1-0.2,0.1c-0.1,0-0.1,0.1-0.2,0.1c-0.1,0-0.2,0.1-0.3,0.1c0.3,0,0.6-0.1,0.9-0.3C9,20.6,9,20.7,8.9,20.8
					c0.2,0,0.3-0.1,0.5-0.2c0,0,0.1,0,0.1,0c0,0,0.1,0,0.1,0c-0.1,0.1-0.3,0.2-0.4,0.4c0.1,0,0.3,0,0.4-0.1c0,0-0.1,0.1-0.1,0.1
					c-0.2,0.3-0.5,0.4-0.8,0.6c0.1,0,0.2,0,0.2,0c0.1,0,0.2-0.1,0.3-0.1C8.8,21.6,8.4,21.8,8,22c0.1,0,0.3,0,0.4,0
					c-0.3,0.2-0.6,0.4-0.9,0.6c0.1,0,0.4,0,0.4,0c0.1,0.1-0.1,0.2-0.1,0.2c0.1,0,0.5,0,0.6,0C8.3,22.9,8.2,23,8.1,23
					c0.1,0,0.2,0.1,0.3,0.1c0.1,0,0.3,0,0.4-0.1c0.2-0.1-0.4,0.3-1,0.5c0.1,0,0.3,0.1,0.4,0.1c-0.2,0.1-0.4,0.1-0.7,0.2
					c0,0,0.1,0,0.1,0.1c-0.1,0.1-0.3,0.1-0.4,0.1c0.2,0,0.3,0.1,0.5,0.1C7.7,24,7.6,24,7.4,24c0.1,0,0.1,0,0.2,0
					c-0.2,0.1-0.3,0.1-0.5,0.2c0.2,0,0.4,0,0.6-0.1c0,0-0.1,0.1-0.1,0.1c0.2,0,0.3,0,0.5-0.1c-0.1,0.1-0.2,0.2-0.4,0.3
					c0.3,0,0.6,0.1,0.9,0.1c0.1,0,0.3,0,0.4,0c0,0,0,0,0.1,0.1c0.1,0.1,0.2,0.1,0.3,0.1c0.4,0.1,0.9,0.1,1.3,0.1c0.2,0,0.4,0,0.6,0
					l0-0.1l0,0.1c0.2,0,0.4,0,0.6,0c0.4,0,0.9-0.1,1.3-0.1c0.1,0,0.2,0,0.3-0.1c0,0,0,0,0.1-0.1c0.1,0,0.3,0.1,0.4,0.1
					c0.3,0,0.6,0,0.9-0.1c-0.1-0.1-0.2-0.2-0.4-0.3c0.2,0,0.3,0.1,0.5,0.1c0,0-0.1-0.1-0.1-0.1C15,24.2,15.2,24.3,15.5,24.2z"/>
			</g>
			<g>
				<linearGradient id="SVGID_20_" gradientUnits="userSpaceOnUse" x1="12.7245" y1="22.4702" x2="19.7915" y2="22.4702">
					<stop  offset="0" style="stop-color:#00305C"/>
					<stop  offset="1" style="stop-color:#1278AA"/>
				</linearGradient>
				<path class="st19" d="M12.7,26.2c0.1-0.1,0.3-0.1,0.4-0.2c-0.1,0-0.1,0-0.2,0c0.1,0,0.2-0.1,0.3-0.1c-0.1,0-0.3,0-0.4-0.1
					c0.1,0,0.2-0.1,0.4-0.1c0,0-0.1,0-0.1-0.1c0.2,0,0.4-0.1,0.5-0.2c0,0,0,0,0,0c-0.1,0-0.2,0-0.3,0c0.1,0,0.3-0.1,0.4-0.2
					c0,0,0,0,0,0c0,0,0,0,0.1-0.1c-0.1,0-0.2,0.1-0.3,0.1c0.2-0.1,0.4-0.3,0.5-0.4c0,0-0.1,0-0.1,0c-0.1,0-0.2,0-0.3,0
					c0.1-0.1,0.2-0.1,0.3-0.2c0,0,0,0,0,0c-0.2,0.1-0.4,0.1-0.5,0.1c0.2-0.1,0.3-0.2,0.5-0.3c-0.2,0.1-0.5,0.1-0.7,0.1
					c0.1,0,0.2-0.1,0.3-0.1c0.2-0.1,0.4-0.2,0.5-0.3c-0.2,0.1-0.4,0.1-0.5,0.1c0.2,0,0.3-0.1,0.5-0.2c0.1-0.1,0.2-0.1,0.3-0.2
					c0,0,0,0,0,0c0,0,0,0,0,0c-0.2,0-0.3,0-0.5,0c0.2,0,0.6-0.2,0.6-0.2c0,0,0.1,0,0.1,0c0,0,0.1-0.1,0.1-0.1c0,0,0,0,0,0
					c0,0,0,0,0,0c0,0,0,0,0,0c-0.1,0-0.2,0.1-0.3,0.1c0.2-0.1,0.3-0.2,0.5-0.3c0,0,0,0,0,0c0,0,0.1-0.1,0.1-0.1
					c-0.2,0.2-0.5,0.2-0.8,0.3c0.2-0.2,0.5-0.3,0.7-0.6c0,0,0-0.1,0.1-0.1c-0.1,0-0.2,0.1-0.3,0.1c0.1-0.1,0.2-0.2,0.4-0.4
					c-0.1,0-0.1,0-0.2,0c0,0-0.1,0-0.1,0c-0.1,0.1-0.3,0.2-0.4,0.2c0.1-0.1,0.1-0.1,0.2-0.2c-0.2,0.1-0.5,0.2-0.8,0.3
					c0.1-0.1,0.2-0.1,0.3-0.1c0.1,0,0.1,0,0.2-0.1c0.1-0.1,0.2-0.1,0.3-0.2c-0.1,0.1-0.2,0.1-0.4,0.1c0.1-0.1,0.3-0.2,0.4-0.3
					c0,0,0.1-0.1,0.1-0.1c0,0-0.1,0-0.1,0c0.1-0.1,0.2-0.1,0.3-0.2c-0.1,0-0.1,0-0.2-0.1c0.2-0.1,0.4-0.2,0.6-0.3c0,0-0.1,0-0.1-0.1
					c0.2-0.1,0.4-0.2,0.5-0.4c-0.2,0.2-0.3,0.2-0.6,0.3c0.2-0.1,0.3-0.2,0.4-0.4c0,0,0,0-0.1,0c0,0,0,0-0.1,0
					c-0.1,0-0.1,0.1-0.2,0.1c-0.1,0-0.1,0-0.2,0c-0.2,0-0.4,0.1-0.7,0.1c0.2-0.1,0.4-0.3,0.7-0.4c0.1,0,0.1-0.1,0.2-0.1
					c-0.1,0-0.2,0-0.2-0.1c0-0.1,0.2-0.1,0.3-0.1c0.2-0.1,0.3-0.2,0.5-0.3c-0.2,0.1-0.4,0.1-0.6,0.1c0.2-0.2,0.5-0.3,0.7-0.5
					C15.5,20,15.3,20,15.1,20c0.1-0.1,0.2-0.2,0.3-0.2c-0.2,0.1-0.4,0.2-0.5,0.2c0.1-0.1,0.3-0.2,0.4-0.3c0,0,0,0-0.1,0
					c0,0,0,0,0-0.1c0.1-0.1,0.3-0.2,0.5-0.3c-0.1,0-0.2,0-0.2,0c0.2-0.1,0.3-0.2,0.5-0.3c-0.1,0-0.2,0-0.4,0c0.2,0,0.4-0.1,0.5-0.2
					c-0.2,0.1-0.3,0.1-0.5,0.1c0,0,0,0,0,0c0.1,0,0.2,0,0.2,0c0,0-0.1,0-0.1,0c0.1-0.1,0.2-0.2,0.3-0.3c0.1-0.1,0.1-0.1,0.1-0.2
					c0,0,0.1-0.1,0.1-0.1c0,0,0,0,0,0c0,0,0,0,0,0c0,0,0.1,0.1,0.1,0.1c0,0.1,0.1,0.1,0.1,0.2c0.1,0.1,0.2,0.2,0.3,0.3
					c0,0,0,0-0.1,0c0,0.1,0.2,0.1,0.3,0.1c-0.2,0.1-0.5,0-0.7-0.1c0.1,0.1,0.3,0.2,0.5,0.3c-0.1,0-0.1,0-0.2,0
					c0.1,0.1,0.2,0.2,0.4,0.2c-0.1,0-0.1,0-0.2,0c0.2,0.2,0.4,0.3,0.6,0.5c-0.1,0-0.1-0.1-0.2-0.1c0.1,0,0.2,0.1,0.3,0.1
					c0,0-0.1,0-0.2,0c-0.2-0.1-0.3-0.2-0.5-0.2c0.1,0.1,0.2,0.2,0.3,0.3c0,0-0.1,0-0.1,0c-0.2-0.1-0.3-0.1-0.4-0.2
					c0.2,0.1,0.3,0.2,0.4,0.4c-0.1,0-0.1-0.1-0.2-0.1c0.1,0,0.2,0.2,0.3,0.2c0.1,0.1,0.2,0.1,0.4,0.2c-0.1,0-0.2,0-0.3,0
					c0.1,0,0.3,0.1,0.3,0.1c0,0.1-0.2,0.1-0.2,0c0.1,0.1,0.2,0.1,0.2,0.2c0,0,0,0,0.1,0c0,0,0,0,0,0c0.2,0.1,0.4,0.3,0.6,0.4
					c-0.2,0-0.4,0-0.7-0.1c-0.1,0-0.1,0-0.2,0c-0.1,0-0.1-0.1-0.2-0.1c0.1,0.1,0.2,0.2,0.4,0.3c-0.3,0-0.4-0.1-0.6-0.3
					c0.1,0.2,0.3,0.3,0.5,0.4c0,0-0.1,0-0.1,0.1c0.2,0.1,0.4,0.2,0.6,0.3c-0.1,0-0.1,0-0.2,0.1c0.1,0.1,0.2,0.1,0.3,0.2
					c0,0-0.1,0-0.1,0c0,0,0.1,0.1,0.1,0.1c0.1,0.1,0.3,0.2,0.4,0.3c-0.1,0-0.2,0-0.4-0.1c0,0.1,0,0.1,0.1,0.1c0,0,0.1,0.1,0.1,0.1
					c0.1,0,0.1,0.1,0.2,0.1c0.1,0,0.2,0.1,0.3,0.1c-0.3,0-0.5-0.1-0.8-0.3c0.1,0.1,0.1,0.1,0.2,0.2c-0.1,0-0.3-0.1-0.4-0.2
					c0,0-0.1,0-0.1,0c0,0-0.1,0-0.1,0c0.1,0.1,0.2,0.2,0.4,0.4c-0.1,0-0.2,0-0.3-0.1c0,0,0,0.1,0.1,0.1c0.2,0.3,0.4,0.4,0.7,0.6
					c0,0-0.1,0-0.2,0c-0.1,0-0.1,0-0.2-0.1c-0.1,0-0.3-0.2-0.4-0.1c0.1,0.1,0.2,0.2,0.2,0.2c0.3,0.2,0.6,0.4,0.9,0.5
					c-0.2,0-0.3,0-0.5,0c0.2,0.2,0.5,0.3,0.7,0.5c0.1,0.1,0.2,0.1,0.3,0.2c-0.2,0-0.3,0-0.5,0c0.1,0.1,0.2,0.2,0.3,0.2
					c-0.2,0-0.4,0-0.5,0c0.1,0.1,0.1,0.1,0.2,0.2c-0.1,0-0.2,0.1-0.3,0.1c-0.1,0-0.2,0-0.4-0.1c-0.2-0.1,0.4,0.3,0.9,0.5
					c-0.1,0-0.3,0.1-0.4,0.1c0.2,0.1,0.4,0.1,0.6,0.2c0,0-0.1,0-0.1,0.1c0.1,0.1,0.2,0.1,0.4,0.1c-0.1,0-0.3,0.1-0.4,0.1
					c0.1,0,0.2,0.1,0.3,0.1c-0.1,0-0.1,0-0.2,0c0.1,0.1,0.3,0.1,0.4,0.2c-0.2,0-0.4,0-0.5-0.1c0,0,0.1,0.1,0.1,0.1
					c-0.1,0-0.3,0-0.4-0.1c0.1,0.1,0.2,0.2,0.3,0.3c-0.2,0-0.5,0.1-0.7,0.1c-0.1,0-0.2,0-0.3,0c0,0,0,0-0.1,0.1
					c-0.1,0.1-0.2,0.1-0.2,0.1c-0.4,0.1-0.7,0.1-1.1,0.1c-0.2,0-0.3,0-0.5,0l0-0.1l0,0.1c-0.2,0-0.3,0-0.5,0c-0.4,0-0.7-0.1-1.1-0.1
					c-0.1,0-0.2,0-0.2-0.1c0,0,0,0-0.1-0.1c-0.1,0-0.3,0.1-0.4,0.1c-0.2,0-0.5,0-0.7-0.1c0.1-0.1,0.2-0.2,0.3-0.3
					c-0.1,0-0.3,0.1-0.4,0.1c0,0,0.1-0.1,0.1-0.1C13.1,26.2,12.9,26.2,12.7,26.2z"/>
			</g>
			<g>
				<linearGradient id="SVGID_21_" gradientUnits="userSpaceOnUse" x1="16.6322" y1="24.1593" x2="23.335" y2="24.1593">
					<stop  offset="0" style="stop-color:#00305C"/>
					<stop  offset="1" style="stop-color:#1278AA"/>
				</linearGradient>
				<path class="st20" d="M23.3,28.2c-0.1-0.1-0.2-0.1-0.4-0.2c0.1,0,0.1,0,0.2,0c-0.1,0-0.2-0.1-0.3-0.1c0.1,0,0.3,0,0.4-0.1
					c-0.1,0-0.2-0.1-0.3-0.1c0,0,0.1,0,0.1-0.1c-0.2,0-0.3-0.1-0.5-0.2c0,0,0,0,0,0c0.1,0,0.2,0,0.3,0c-0.1,0-0.3-0.1-0.4-0.2
					c0,0,0,0,0,0c0,0,0,0-0.1-0.1c0.1,0,0.2,0.1,0.3,0.1c-0.2-0.1-0.4-0.3-0.5-0.5c0,0,0.1,0,0.1,0c0.1,0,0.2,0,0.3,0
					c-0.1-0.1-0.2-0.2-0.3-0.2c0,0,0,0,0,0c0.2,0.1,0.3,0.1,0.5,0.1c-0.2-0.1-0.3-0.2-0.5-0.3c0.2,0.1,0.4,0.1,0.7,0.1
					c-0.1,0-0.2-0.1-0.3-0.1c-0.2-0.1-0.3-0.2-0.5-0.3c0.2,0.1,0.3,0.1,0.5,0.1c-0.2,0-0.3-0.1-0.5-0.2c-0.1-0.1-0.2-0.1-0.3-0.2
					c0,0,0,0,0,0c0,0,0,0,0,0c0.2,0,0.3,0,0.5,0c-0.2-0.1-0.6-0.2-0.6-0.2c0,0-0.1,0-0.1,0c0,0-0.1-0.1-0.1-0.1c0,0,0,0,0,0
					c0,0,0,0,0,0c0,0,0,0,0,0c0.1,0,0.2,0.1,0.3,0.1c-0.2-0.1-0.3-0.2-0.5-0.4c0,0,0,0,0,0c0-0.1-0.1-0.1-0.1-0.2
					c0.2,0.2,0.5,0.3,0.7,0.3c-0.2-0.2-0.5-0.4-0.7-0.6c0,0,0-0.1-0.1-0.1c0.1,0.1,0.2,0.1,0.3,0.1c-0.1-0.1-0.2-0.3-0.3-0.4
					c0.1,0,0.1,0,0.2,0c0,0,0.1,0,0.1,0c0.1,0.1,0.2,0.2,0.4,0.2c-0.1-0.1-0.1-0.2-0.2-0.2c0.2,0.2,0.5,0.3,0.8,0.3
					c-0.1-0.1-0.2-0.1-0.3-0.2c-0.1,0-0.1-0.1-0.2-0.1c-0.1-0.1-0.2-0.2-0.3-0.2c0.1,0.1,0.2,0.1,0.3,0.1c-0.1-0.1-0.2-0.2-0.4-0.3
					c0,0-0.1-0.1-0.1-0.1c0,0,0.1,0,0.1,0c-0.1-0.1-0.2-0.1-0.3-0.2c0.1,0,0.1,0,0.2-0.1c-0.2-0.1-0.4-0.2-0.6-0.4
					c0,0,0.1-0.1,0.1-0.1c-0.2-0.1-0.4-0.3-0.5-0.5c0.2,0.2,0.3,0.3,0.6,0.3c-0.1-0.1-0.3-0.2-0.4-0.4c0,0,0,0,0.1,0c0,0,0,0,0,0
					c0.1,0.1,0.1,0.1,0.2,0.1c0.1,0,0.1,0,0.2,0.1c0.2,0,0.4,0.1,0.6,0.1c-0.2-0.1-0.4-0.3-0.6-0.4c-0.1,0-0.1-0.1-0.2-0.1
					c0.1,0,0.2,0,0.2-0.1c0-0.1-0.2-0.1-0.3-0.1c-0.2-0.1-0.3-0.2-0.5-0.3c0.2,0.1,0.4,0.1,0.6,0.1c-0.2-0.2-0.5-0.3-0.7-0.5
					c0.2,0.1,0.3,0.1,0.5,0.2c-0.1-0.1-0.2-0.2-0.3-0.3c0.2,0.1,0.3,0.2,0.5,0.2c-0.1-0.1-0.2-0.2-0.4-0.3c0,0,0,0,0,0
					c0,0,0-0.1,0-0.1c-0.1-0.1-0.3-0.2-0.4-0.3c0.1,0,0.1,0,0.2,0c-0.2-0.1-0.3-0.2-0.4-0.3c0.1,0,0.2,0,0.4,0
					c-0.2,0-0.3-0.1-0.5-0.2c0.2,0.1,0.3,0.1,0.5,0.1c0,0,0,0,0-0.1c-0.1,0-0.2,0-0.2,0c0,0,0.1,0,0.1,0c-0.1-0.1-0.2-0.2-0.3-0.3
					c0-0.1-0.1-0.1-0.1-0.2c0,0-0.1-0.2-0.1-0.2c0,0,0,0,0,0c0,0,0,0,0,0c0,0-0.1,0.1-0.1,0.2c0,0.1-0.1,0.2-0.1,0.2
					c-0.1,0.1-0.2,0.2-0.3,0.3c0,0,0,0,0.1,0c0,0.1-0.2,0.1-0.3,0.2c0.2,0.1,0.4,0,0.6-0.2c-0.1,0.1-0.3,0.3-0.5,0.3
					c0.1,0,0.1,0,0.2,0c-0.1,0.1-0.2,0.2-0.4,0.2c0,0,0.1,0,0.1,0c-0.2,0.2-0.4,0.3-0.6,0.5c0.1,0,0.1-0.1,0.2-0.1
					c-0.1,0.1-0.2,0.1-0.3,0.2c0,0,0.1,0,0.2,0c0.2-0.1,0.3-0.2,0.5-0.3c-0.1,0.1-0.2,0.2-0.3,0.4c0,0,0.1,0,0.1,0
					c0.1-0.1,0.3-0.1,0.4-0.3c-0.1,0.1-0.3,0.3-0.4,0.4c0.1,0,0.1-0.1,0.2-0.1c-0.1,0-0.2,0.2-0.3,0.3c-0.1,0.1-0.2,0.1-0.3,0.2
					c0.1,0,0.2,0,0.3,0c-0.1,0-0.3,0.1-0.3,0.1c0,0.2,0.2,0.1,0.2,0c-0.1,0.1-0.1,0.1-0.2,0.2c0,0,0,0,0,0c0,0,0,0,0,0
					c-0.2,0.1-0.4,0.3-0.6,0.4c0.2,0,0.4,0,0.6-0.1c0.1,0,0.1,0,0.2-0.1c0.1,0,0.1-0.1,0.2-0.1c-0.1,0.1-0.2,0.2-0.3,0.3
					c0.3,0,0.4-0.1,0.6-0.3c-0.1,0.2-0.3,0.4-0.5,0.5c0,0,0.1,0,0.1,0.1c-0.2,0.1-0.4,0.3-0.6,0.4c0.1,0,0.1,0,0.2,0.1
					c-0.1,0.1-0.2,0.1-0.3,0.2c0,0,0.1,0,0.1,0c0,0-0.1,0.1-0.1,0.1c-0.1,0.1-0.2,0.2-0.4,0.3c0.1,0,0.2,0,0.3-0.1
					c0,0.1,0,0.1-0.1,0.1c0,0-0.1,0.1-0.1,0.1c-0.1,0-0.1,0.1-0.2,0.1c-0.1,0-0.2,0.1-0.3,0.2c0.3,0,0.5-0.1,0.8-0.3
					c-0.1,0.1-0.1,0.1-0.2,0.2c0.1,0,0.3-0.1,0.4-0.2c0,0,0.1,0,0.1,0c0,0,0.1,0,0.1,0c-0.1,0.1-0.2,0.2-0.3,0.4
					c0.1,0,0.2,0,0.3-0.1c0,0,0,0.1-0.1,0.1c-0.2,0.3-0.4,0.5-0.7,0.6c0,0,0.1,0,0.2,0c0.1,0,0.1,0,0.2-0.1c0.1,0,0.3-0.2,0.3-0.1
					c0,0.1-0.2,0.2-0.2,0.2c-0.3,0.2-0.6,0.4-0.9,0.6c0.2,0,0.3,0,0.5-0.1c-0.2,0.2-0.4,0.4-0.7,0.6c-0.1,0.1-0.2,0.1-0.3,0.2
					c0.2,0,0.3,0,0.5,0c-0.1,0.1-0.2,0.2-0.3,0.2c0.2,0,0.3,0,0.5,0c-0.1,0.1-0.1,0.2-0.2,0.2c0.1,0,0.2,0.1,0.2,0.1
					c0.1,0,0.2,0,0.3-0.1c0.2-0.1-0.4,0.3-0.8,0.5c0.1,0,0.2,0.1,0.3,0.1c-0.2,0.1-0.4,0.2-0.5,0.2c0,0,0.1,0,0.1,0.1
					c-0.1,0.1-0.2,0.1-0.3,0.1c0.1,0.1,0.3,0.1,0.4,0.1c-0.1,0-0.2,0.1-0.3,0.1c0.1,0,0.1,0,0.2,0c-0.1,0.1-0.2,0.1-0.4,0.2
					c0.2,0,0.4,0,0.5-0.1c0,0-0.1,0.1-0.1,0.1c0.1,0,0.3-0.1,0.4-0.1c-0.1,0.1-0.2,0.2-0.3,0.3c0.2,0,0.5,0.1,0.7,0.1
					c0.1,0,0.2,0,0.3,0c0,0,0,0,0,0.1c0.1,0.1,0.2,0.1,0.2,0.1c0.3,0.1,0.7,0.1,1,0.1c0.2,0,0.3,0,0.5,0l0-0.1l0,0.1
					c0.2,0,0.3,0,0.5,0c0.3,0,0.7-0.1,1-0.1c0.1,0,0.2,0,0.2-0.1c0,0,0,0,0.1-0.1c0.1,0,0.2,0.1,0.4,0.1c0.2,0,0.5,0,0.7-0.1
					c-0.1-0.1-0.2-0.2-0.3-0.3c0.1,0.1,0.3,0.1,0.4,0.1c0,0-0.1-0.1-0.1-0.1C23,28.2,23.2,28.2,23.3,28.2z"/>
			</g>
			<g>
				<linearGradient id="SVGID_22_" gradientUnits="userSpaceOnUse" x1="33.7088" y1="18.2116" x2="42.0014" y2="18.2116">
					<stop  offset="0" style="stop-color:#00305C"/>
					<stop  offset="1" style="stop-color:#1278AA"/>
				</linearGradient>
				<path class="st21" d="M33.7,23c0.2-0.1,0.3-0.2,0.5-0.2c-0.1,0-0.1,0-0.2,0c0.1,0,0.2-0.1,0.3-0.1c-0.2,0-0.3,0-0.5-0.1
					c0.1,0,0.3-0.1,0.4-0.2c0,0-0.1,0-0.1-0.1c0.2,0,0.4-0.1,0.6-0.2c0,0,0,0,0,0c-0.1,0-0.2,0-0.3,0c0.2,0,0.3-0.1,0.5-0.2
					c0,0,0,0,0,0c0,0,0-0.1,0.1-0.1c-0.1,0-0.3,0.1-0.4,0.1c0.2-0.1,0.5-0.3,0.6-0.6c-0.1,0-0.1,0-0.2,0c-0.1,0-0.2,0-0.4,0
					c0.1-0.1,0.2-0.2,0.3-0.2c0,0,0,0,0,0c-0.2,0.1-0.4,0.1-0.6,0.2c0.2-0.1,0.4-0.3,0.6-0.4c-0.3,0.1-0.5,0.1-0.8,0.1
					c0.1-0.1,0.2-0.1,0.3-0.2c0.2-0.1,0.4-0.2,0.6-0.4c-0.2,0.1-0.4,0.1-0.6,0.1c0.2,0,0.4-0.2,0.6-0.3c0.1-0.1,0.2-0.1,0.3-0.2
					c0,0,0,0,0,0c0,0,0,0,0,0c-0.2,0-0.4,0-0.6,0c0.2-0.1,0.7-0.2,0.7-0.2c0,0,0.1,0,0.1,0c0-0.1,0.1-0.1,0.1-0.1c0,0,0,0,0-0.1
					c0,0,0,0,0.1,0c0,0,0,0,0,0c-0.1,0-0.2,0.1-0.4,0.1c0.2-0.1,0.4-0.3,0.6-0.4c0,0,0,0,0,0c0-0.1,0.1-0.1,0.1-0.2
					c-0.3,0.2-0.6,0.3-0.9,0.4c0.3-0.2,0.6-0.4,0.8-0.8c0,0,0.1-0.1,0.1-0.1c-0.1,0.1-0.3,0.1-0.4,0.1c0.1-0.2,0.3-0.3,0.4-0.5
					c-0.1,0-0.1,0-0.2,0c0,0-0.1,0-0.1,0.1c-0.2,0.1-0.3,0.2-0.5,0.2c0.1-0.1,0.2-0.2,0.3-0.3c-0.3,0.2-0.6,0.3-0.9,0.4
					c0.1-0.1,0.2-0.1,0.3-0.2c0.1,0,0.1-0.1,0.2-0.1c0.1-0.1,0.2-0.2,0.3-0.3c-0.1,0.1-0.3,0.1-0.4,0.1c0.2-0.1,0.3-0.2,0.5-0.4
					c0,0,0.1-0.1,0.1-0.1c-0.1,0-0.1,0-0.2,0c0.1-0.1,0.2-0.1,0.3-0.2c-0.1,0-0.1,0-0.2-0.1c0.2-0.1,0.5-0.3,0.7-0.4
					c0,0-0.1-0.1-0.2-0.1c0.2-0.1,0.4-0.3,0.6-0.6c-0.2,0.2-0.4,0.3-0.7,0.4c0.2-0.1,0.4-0.2,0.5-0.5c0,0,0,0-0.1,0c0,0,0,0-0.1,0
					c-0.1,0.1-0.2,0.1-0.3,0.2c-0.1,0-0.2,0-0.2,0.1c-0.3,0-0.5,0.1-0.8,0.1c0.3-0.1,0.5-0.3,0.8-0.5c0.1-0.1,0.2-0.1,0.2-0.2
					c-0.1,0-0.2,0-0.2-0.1c0-0.1,0.3-0.1,0.3-0.1c0.2-0.1,0.4-0.2,0.6-0.4c-0.2,0.1-0.5,0.1-0.7,0.1c0.3-0.2,0.6-0.4,0.8-0.6
					c-0.2,0.1-0.4,0.2-0.6,0.2c0.1-0.1,0.2-0.2,0.4-0.3c-0.2,0.2-0.4,0.2-0.6,0.2c0.2-0.1,0.3-0.2,0.5-0.3c0,0,0,0-0.1,0
					c0,0,0-0.1,0-0.1c0.2-0.1,0.4-0.2,0.5-0.4c-0.1,0-0.2,0-0.3,0c0.2-0.1,0.4-0.2,0.5-0.3c-0.1,0-0.3,0-0.4,0
					c0.2-0.1,0.4-0.2,0.6-0.3c-0.2,0.1-0.4,0.1-0.6,0.1c0,0,0,0,0-0.1c0.1,0,0.2,0,0.3,0c0,0-0.1,0-0.1,0c0.1-0.1,0.3-0.2,0.4-0.4
					c0.1-0.1,0.1-0.2,0.2-0.3c0-0.1,0.1-0.2,0.1-0.2c0,0,0,0,0,0c0,0,0,0,0,0c0,0,0.1,0.1,0.1,0.2c0.1,0.1,0.1,0.2,0.2,0.3
					c0.1,0.2,0.3,0.3,0.4,0.4c0,0-0.1,0-0.1,0c0,0.1,0.2,0.1,0.3,0.2c-0.3,0.1-0.5,0-0.8-0.2c0.2,0.2,0.4,0.3,0.6,0.4
					c-0.1,0-0.1,0-0.2,0c0.1,0.1,0.3,0.2,0.4,0.3c-0.1,0-0.1,0-0.2,0c0.2,0.2,0.5,0.4,0.7,0.6c-0.1,0-0.2-0.1-0.3-0.1
					c0.1,0.1,0.2,0.1,0.3,0.2c-0.1,0-0.1,0-0.2,0c-0.2-0.1-0.4-0.2-0.6-0.3c0.1,0.1,0.3,0.3,0.4,0.4c0,0-0.1,0-0.1,0
					c-0.2-0.1-0.4-0.2-0.5-0.3c0.2,0.1,0.3,0.3,0.5,0.5c-0.1,0-0.2-0.1-0.2-0.1c0.1,0.1,0.3,0.2,0.4,0.3c0.1,0.1,0.3,0.2,0.4,0.2
					c-0.1,0-0.2,0-0.3,0.1c0.1,0,0.4,0.1,0.4,0.2c0,0.2-0.2,0.1-0.3,0.1c0.1,0.1,0.2,0.1,0.3,0.2c0,0,0,0,0.1,0c0,0,0,0,0,0
					c0.2,0.2,0.4,0.4,0.7,0.5c-0.3,0-0.5,0-0.8-0.1c-0.1,0-0.2,0-0.2-0.1c-0.1,0-0.1-0.1-0.2-0.1c0.1,0.1,0.3,0.3,0.4,0.4
					c-0.3,0-0.5-0.1-0.7-0.4c0.2,0.2,0.4,0.4,0.6,0.6c-0.1,0-0.1,0-0.2,0.1c0.2,0.2,0.5,0.3,0.7,0.4c-0.1,0-0.1,0-0.2,0.1
					c0.1,0.1,0.2,0.1,0.3,0.2c-0.1,0-0.1,0-0.2,0c0,0,0.1,0.1,0.1,0.1c0.2,0.1,0.3,0.2,0.5,0.4c-0.1,0-0.3,0-0.4-0.1
					c0,0.1,0.1,0.1,0.1,0.2c0.1,0,0.1,0.1,0.2,0.1c0.1,0,0.1,0.1,0.2,0.1c0.1,0.1,0.2,0.1,0.3,0.2c-0.3,0-0.6-0.2-0.9-0.4
					c0.1,0.1,0.2,0.2,0.3,0.3c-0.2,0-0.3-0.2-0.5-0.2c0,0-0.1,0-0.1-0.1c0,0-0.1,0-0.1,0c0.1,0.1,0.3,0.3,0.4,0.5
					c-0.1,0-0.3,0-0.4-0.1c0,0,0.1,0.1,0.1,0.1c0.2,0.3,0.5,0.6,0.8,0.8c-0.1,0-0.2,0-0.2,0c-0.1,0-0.2,0-0.2-0.1
					c-0.1,0-0.3-0.2-0.4-0.2c0.1,0.1,0.2,0.2,0.3,0.3c0.3,0.3,0.7,0.5,1.1,0.7c-0.2,0.1-0.4,0-0.6-0.1c0.3,0.2,0.6,0.4,0.8,0.7
					c0.1,0.1,0.2,0.2,0.3,0.2c-0.2,0-0.4,0-0.6,0c0.1,0.1,0.2,0.2,0.4,0.3c-0.2,0-0.4,0-0.6-0.1c0.1,0.1,0.2,0.2,0.3,0.3
					c-0.1,0.1-0.2,0.1-0.3,0.1c-0.1,0-0.3,0-0.4-0.1c-0.2-0.1,0.4,0.4,1,0.6c-0.1,0-0.3,0.1-0.4,0.1c0.2,0.1,0.4,0.2,0.7,0.2
					c0,0-0.1,0-0.1,0.1c0.1,0.1,0.3,0.1,0.4,0.2c-0.2,0.1-0.3,0.1-0.5,0.1c0.1,0,0.2,0.1,0.3,0.1c-0.1,0-0.1,0-0.2,0
					c0.2,0.1,0.3,0.2,0.5,0.2c-0.2,0-0.4,0-0.6-0.1c0,0,0.1,0.1,0.1,0.1c-0.2,0-0.3-0.1-0.5-0.1c0.1,0.1,0.2,0.2,0.4,0.3
					c-0.3,0.1-0.6,0.1-0.9,0.1c-0.1,0-0.3,0-0.4-0.1c0,0,0,0.1-0.1,0.1c-0.1,0.1-0.2,0.1-0.3,0.1c-0.4,0.1-0.9,0.1-1.3,0.2
					c-0.2,0-0.4,0-0.6,0l0-0.1l0,0.1c-0.2,0-0.4,0-0.6,0c-0.4,0-0.9-0.1-1.3-0.2c-0.1,0-0.2,0-0.3-0.1c0,0,0-0.1-0.1-0.1
					c-0.1,0-0.3,0.1-0.4,0.1c-0.3,0-0.6,0-0.9-0.1c0.1-0.1,0.2-0.2,0.4-0.3c-0.2,0.1-0.3,0.1-0.5,0.1c0,0,0.1-0.1,0.1-0.1
					C34.1,23,33.9,23,33.7,23z"/>
			</g>
			<g>
				<linearGradient id="SVGID_23_" gradientUnits="userSpaceOnUse" x1="27.2885" y1="20.4901" x2="35.5705" y2="20.4901">
					<stop  offset="0" style="stop-color:#00305C"/>
					<stop  offset="1" style="stop-color:#1278AA"/>
				</linearGradient>
				<path class="st22" d="M27.3,24.2c0.2-0.1,0.3-0.1,0.5-0.2c-0.1,0-0.1,0-0.2,0c0.1,0,0.2-0.1,0.3-0.1c-0.2,0-0.3,0-0.5-0.1
					c0.1,0,0.3-0.1,0.4-0.1c0,0-0.1,0-0.1-0.1c0.2,0,0.4-0.1,0.6-0.2c0,0,0,0,0,0c-0.1,0-0.2,0-0.3,0c0.2,0,0.3-0.1,0.5-0.2
					c0,0,0,0,0,0c0,0,0,0,0.1-0.1c-0.1,0-0.3,0.1-0.4,0.1c0.2-0.1,0.5-0.3,0.6-0.4c-0.1,0-0.1,0-0.2,0c-0.1,0-0.2,0-0.4,0
					c0.1-0.1,0.2-0.1,0.3-0.2c0,0,0,0,0,0c-0.2,0.1-0.4,0.1-0.6,0.1c0.2-0.1,0.4-0.2,0.6-0.3c-0.3,0.1-0.5,0.1-0.8,0.1
					c0.1,0,0.2-0.1,0.3-0.1c0.2-0.1,0.4-0.2,0.6-0.3c-0.2,0.1-0.4,0.1-0.6,0.1c0.2,0,0.4-0.1,0.6-0.2c0.1,0,0.2-0.1,0.3-0.2
					c0,0,0,0,0,0c0,0,0,0,0,0c-0.2,0-0.4,0-0.6,0c0.2,0,0.7-0.2,0.7-0.2c0,0,0.1,0,0.1,0c0,0,0.1-0.1,0.1-0.1c0,0,0,0,0,0
					c0,0,0,0,0.1,0c0,0,0,0,0,0c-0.1,0-0.2,0.1-0.4,0.1c0.2-0.1,0.4-0.2,0.6-0.3c0,0,0.1-0.1,0.1-0.1c-0.3,0.2-0.6,0.2-0.9,0.3
					c0.3-0.2,0.6-0.3,0.8-0.6c0,0,0.1-0.1,0.1-0.1c-0.1,0-0.3,0.1-0.4,0.1c0.1-0.1,0.3-0.2,0.4-0.4c-0.1,0-0.1,0-0.2,0
					c0,0-0.1,0-0.1,0c-0.2,0.1-0.3,0.2-0.5,0.2c0.1-0.1,0.2-0.1,0.3-0.2c-0.3,0.1-0.6,0.2-0.9,0.3c0.1-0.1,0.2-0.1,0.3-0.1
					c0.1,0,0.1,0,0.2-0.1c0.1-0.1,0.2-0.1,0.3-0.2c-0.1,0.1-0.3,0.1-0.4,0.1c0.2-0.1,0.3-0.2,0.5-0.3c0,0,0.1-0.1,0.1-0.1
					c-0.1,0-0.1,0-0.2,0c0.1-0.1,0.2-0.1,0.3-0.2c-0.1,0-0.1,0-0.2-0.1c0.2-0.1,0.5-0.2,0.7-0.3c0,0-0.1,0-0.2-0.1
					c0.2-0.1,0.4-0.2,0.6-0.4c-0.2,0.2-0.4,0.2-0.7,0.3c0.2-0.1,0.4-0.2,0.5-0.4c0,0,0,0-0.1,0c0,0,0,0-0.1,0
					c-0.1,0-0.2,0.1-0.3,0.1c-0.1,0-0.2,0-0.2,0c-0.3,0-0.5,0.1-0.8,0.1c0.3-0.1,0.5-0.3,0.8-0.4c0.1,0,0.2-0.1,0.2-0.1
					c-0.1,0-0.2,0-0.2-0.1c0-0.1,0.3-0.1,0.3-0.1c0.2-0.1,0.4-0.2,0.6-0.3c-0.2,0.1-0.5,0.1-0.7,0.1c0.3-0.2,0.6-0.3,0.8-0.5
					C30.5,18,30.3,18,30.1,18c0.1-0.1,0.2-0.2,0.4-0.2C30.3,17.9,30,18,29.8,18c0.2-0.1,0.3-0.2,0.4-0.3c0,0,0,0-0.1,0
					c0,0,0,0,0-0.1c0.2-0.1,0.4-0.2,0.5-0.3c-0.1,0-0.2,0-0.3,0c0.2-0.1,0.4-0.2,0.5-0.3c-0.1,0-0.3,0-0.4,0c0.2,0,0.4-0.1,0.6-0.2
					c-0.2,0.1-0.4,0.1-0.6,0.1c0,0,0,0,0,0c0.1,0,0.2,0,0.3,0c0,0-0.1,0-0.1,0c0.1-0.1,0.3-0.2,0.4-0.3c0.1-0.1,0.1-0.1,0.2-0.2
					c0,0,0.1-0.1,0.1-0.1c0,0,0,0,0,0c0,0,0,0,0,0c0,0,0.1,0.1,0.1,0.1c0.1,0.1,0.1,0.1,0.2,0.2c0.1,0.1,0.3,0.2,0.4,0.3
					c0,0-0.1,0-0.1,0c0,0.1,0.2,0.1,0.3,0.1c-0.3,0.1-0.5,0-0.8-0.1c0.2,0.1,0.4,0.2,0.6,0.3c-0.1,0-0.1,0-0.2,0
					c0.1,0.1,0.3,0.2,0.4,0.2c-0.1,0-0.1,0-0.2,0c0.2,0.2,0.5,0.3,0.7,0.5c-0.1,0-0.2-0.1-0.3-0.1c0.1,0,0.2,0.1,0.3,0.1
					c-0.1,0-0.1,0-0.2,0c-0.2-0.1-0.4-0.2-0.6-0.2c0.1,0.1,0.3,0.2,0.4,0.3c0,0-0.1,0-0.1,0c-0.2-0.1-0.4-0.1-0.5-0.2
					c0.2,0.1,0.3,0.2,0.5,0.4c-0.1,0-0.2-0.1-0.2-0.1c0.1,0,0.3,0.2,0.4,0.2c0.1,0.1,0.3,0.1,0.4,0.2c-0.1,0-0.2,0-0.3,0
					c0.1,0,0.4,0.1,0.4,0.1c0,0.1-0.2,0.1-0.3,0c0.1,0.1,0.2,0.1,0.3,0.2c0,0,0,0,0.1,0c0,0,0,0,0,0c0.2,0.1,0.4,0.3,0.7,0.4
					c-0.3,0-0.5,0-0.8-0.1c-0.1,0-0.2,0-0.2,0c-0.1,0-0.1-0.1-0.2-0.1c0.1,0.1,0.3,0.2,0.4,0.3c-0.3,0-0.5-0.1-0.7-0.3
					c0.2,0.2,0.4,0.3,0.6,0.4c-0.1,0-0.1,0-0.2,0.1c0.2,0.1,0.5,0.2,0.7,0.3c-0.1,0-0.1,0-0.2,0.1c0.1,0.1,0.2,0.1,0.3,0.2
					c-0.1,0-0.1,0-0.2,0c0,0,0.1,0.1,0.1,0.1c0.2,0.1,0.3,0.2,0.5,0.3c-0.1,0-0.3,0-0.4-0.1c0,0.1,0.1,0.1,0.1,0.1
					c0.1,0,0.1,0.1,0.2,0.1c0.1,0,0.1,0.1,0.2,0.1c0.1,0,0.2,0.1,0.3,0.1c-0.3,0-0.6-0.1-0.9-0.3c0.1,0.1,0.2,0.1,0.3,0.2
					c-0.2,0-0.3-0.1-0.5-0.2c0,0-0.1,0-0.1,0c0,0-0.1,0-0.1,0c0.1,0.1,0.3,0.2,0.4,0.4c-0.1,0-0.3,0-0.4-0.1c0,0,0.1,0.1,0.1,0.1
					c0.2,0.3,0.5,0.4,0.8,0.6c-0.1,0-0.2,0-0.2,0c-0.1,0-0.2-0.1-0.3-0.1c0.4,0.2,0.8,0.4,1.2,0.6c-0.1,0-0.3,0-0.4,0
					c0.3,0.2,0.6,0.4,0.9,0.6c-0.1,0-0.4,0-0.4,0c-0.1,0.1,0.1,0.2,0.1,0.2c-0.1,0-0.5,0-0.6,0c0.1,0.1,0.2,0.1,0.3,0.2
					c-0.1,0-0.2,0.1-0.3,0.1c-0.1,0-0.3,0-0.4-0.1c-0.2-0.1,0.4,0.3,1,0.5c-0.1,0-0.3,0.1-0.4,0.1c0.2,0.1,0.4,0.1,0.7,0.2
					c0,0-0.1,0-0.1,0.1c0.1,0.1,0.3,0.1,0.4,0.1c-0.2,0-0.3,0.1-0.5,0.1c0.1,0,0.2,0.1,0.3,0.1c-0.1,0-0.1,0-0.2,0
					c0.2,0.1,0.3,0.1,0.5,0.2c-0.2,0-0.4,0-0.6-0.1c0,0,0.1,0.1,0.1,0.1c-0.2,0-0.3,0-0.5-0.1c0.1,0.1,0.2,0.2,0.4,0.3
					c-0.3,0-0.6,0.1-0.9,0.1c-0.1,0-0.3,0-0.4,0c0,0,0,0-0.1,0.1c-0.1,0.1-0.2,0.1-0.3,0.1c-0.4,0.1-0.9,0.1-1.3,0.1
					c-0.2,0-0.4,0-0.6,0l0-0.1l0,0.1c-0.2,0-0.4,0-0.6,0c-0.4,0-0.9-0.1-1.3-0.1c-0.1,0-0.2,0-0.3-0.1c0,0,0,0-0.1-0.1
					c-0.1,0-0.3,0.1-0.4,0.1c-0.3,0-0.6,0-0.9-0.1c0.1-0.1,0.2-0.2,0.4-0.3c-0.2,0-0.3,0.1-0.5,0.1c0,0,0.1-0.1,0.1-0.1
					C27.7,24.2,27.5,24.3,27.3,24.2z"/>
			</g>
			<g>
				<linearGradient id="SVGID_24_" gradientUnits="userSpaceOnUse" x1="23.3534" y1="22.4702" x2="30.3283" y2="22.4702">
					<stop  offset="0" style="stop-color:#00305C"/>
					<stop  offset="1" style="stop-color:#1278AA"/>
				</linearGradient>
				<path class="st23" d="M30.3,26.2c-0.1-0.1-0.3-0.1-0.4-0.2c0.1,0,0.1,0,0.2,0c-0.1,0-0.2-0.1-0.3-0.1c0.1,0,0.3,0,0.4-0.1
					c-0.1,0-0.2-0.1-0.4-0.1c0,0,0.1,0,0.1-0.1c-0.2,0-0.3-0.1-0.5-0.2c0,0,0,0,0,0c0.1,0,0.2,0,0.3,0c-0.1,0-0.3-0.1-0.4-0.2
					c0,0,0,0,0,0c0,0,0,0-0.1-0.1c0.1,0,0.2,0.1,0.3,0.1c-0.2-0.1-0.4-0.3-0.5-0.4c0,0,0.1,0,0.1,0c0.1,0,0.2,0,0.3,0
					c-0.1-0.1-0.2-0.1-0.3-0.2c0,0,0,0,0,0c0.2,0.1,0.4,0.1,0.5,0.1c-0.2-0.1-0.3-0.2-0.5-0.3c0.2,0.1,0.4,0.1,0.7,0.1
					c-0.1,0-0.2-0.1-0.3-0.1c-0.2-0.1-0.4-0.2-0.5-0.3c0.2,0.1,0.4,0.1,0.5,0.1c-0.2,0-0.3-0.1-0.5-0.2C29,24.1,29,24.1,28.9,24
					c0,0,0,0,0,0c0,0,0,0,0,0c0.2,0,0.3,0,0.5,0c-0.2,0-0.6-0.2-0.6-0.2c0,0-0.1,0-0.1,0c0,0-0.1-0.1-0.1-0.1c0,0,0,0,0,0
					c0,0,0,0,0,0c0,0,0,0,0,0c0.1,0,0.2,0.1,0.3,0.1c-0.2-0.1-0.3-0.2-0.5-0.3c0,0,0,0,0,0c0,0-0.1-0.1-0.1-0.1
					c0.2,0.2,0.5,0.2,0.8,0.3c-0.2-0.2-0.5-0.3-0.7-0.6c0,0,0-0.1-0.1-0.1c0.1,0,0.2,0.1,0.3,0.1c-0.1-0.1-0.2-0.2-0.3-0.4
					c0.1,0,0.1,0,0.2,0c0,0,0.1,0,0.1,0c0.1,0.1,0.3,0.2,0.4,0.2c-0.1-0.1-0.1-0.1-0.2-0.2c0.2,0.1,0.5,0.2,0.8,0.3
					c-0.1-0.1-0.2-0.1-0.3-0.1c-0.1,0-0.1,0-0.2-0.1c-0.1-0.1-0.2-0.1-0.3-0.2c0.1,0.1,0.2,0.1,0.3,0.1c-0.1-0.1-0.3-0.2-0.4-0.3
					c0,0-0.1-0.1-0.1-0.1c0,0,0.1,0,0.1,0c-0.1-0.1-0.2-0.1-0.3-0.2c0.1,0,0.1,0,0.2-0.1c-0.2-0.1-0.4-0.2-0.6-0.3
					c0,0,0.1,0,0.1-0.1c-0.2-0.1-0.4-0.2-0.5-0.4c0.2,0.2,0.3,0.2,0.6,0.3c-0.2-0.1-0.3-0.2-0.4-0.4c0,0,0,0,0.1,0c0,0,0,0,0.1,0
					c0.1,0,0.1,0.1,0.2,0.1c0.1,0,0.1,0,0.2,0c0.2,0,0.4,0.1,0.6,0.1c-0.2-0.1-0.4-0.3-0.7-0.4c-0.1,0-0.1-0.1-0.2-0.1
					c0.1,0,0.2,0,0.2-0.1c0-0.1-0.2-0.1-0.3-0.1c-0.2-0.1-0.3-0.2-0.5-0.3c0.2,0.1,0.4,0.1,0.6,0.1c-0.2-0.2-0.5-0.3-0.7-0.5
					C27.6,20,27.8,20,28,20c-0.1-0.1-0.2-0.2-0.3-0.2c0.2,0.1,0.3,0.2,0.5,0.2c-0.1-0.1-0.3-0.2-0.4-0.3c0,0,0,0,0,0c0,0,0,0,0-0.1
					c-0.1-0.1-0.3-0.2-0.4-0.3c0.1,0,0.2,0,0.2,0c-0.2-0.1-0.3-0.2-0.5-0.3c0.1,0,0.2,0,0.4,0c-0.2,0-0.3-0.1-0.5-0.2
					c0.2,0.1,0.3,0.1,0.5,0.1c0,0,0,0,0,0c-0.1,0-0.2,0-0.2,0c0,0,0.1,0,0.1,0c-0.1-0.1-0.2-0.2-0.3-0.3c-0.1-0.1-0.1-0.1-0.1-0.2
					c0,0-0.1-0.1-0.1-0.1c0,0,0,0,0,0c0,0,0,0,0,0c0,0-0.1,0.1-0.1,0.1c0,0.1-0.1,0.1-0.1,0.2c-0.1,0.1-0.2,0.2-0.3,0.3
					c0,0,0,0,0.1,0c0,0.1-0.2,0.1-0.3,0.1c0.2,0.1,0.5,0,0.6-0.1c-0.1,0.1-0.3,0.2-0.5,0.3c0.1,0,0.1,0,0.2,0
					c-0.1,0.1-0.2,0.2-0.4,0.2c0.1,0,0.1,0,0.2,0c-0.2,0.2-0.4,0.3-0.6,0.5c0.1,0,0.1-0.1,0.2-0.1c-0.1,0-0.2,0.1-0.3,0.1
					c0,0,0.1,0,0.2,0c0.2-0.1,0.3-0.2,0.5-0.2c-0.1,0.1-0.2,0.2-0.3,0.3c0,0,0.1,0,0.1,0c0.1-0.1,0.3-0.1,0.4-0.2
					c-0.2,0.1-0.3,0.2-0.4,0.4c0.1,0,0.1-0.1,0.2-0.1c-0.1,0-0.2,0.2-0.3,0.2c-0.1,0.1-0.2,0.1-0.4,0.2c0.1,0,0.2,0,0.3,0
					c-0.1,0-0.3,0.1-0.3,0.1c0,0.1,0.2,0.1,0.2,0c-0.1,0.1-0.2,0.1-0.2,0.2c0,0,0,0-0.1,0c0,0,0,0,0,0c-0.2,0.1-0.4,0.3-0.6,0.4
					c0.2,0,0.4,0,0.6-0.1c0.1,0,0.1,0,0.2,0c0.1,0,0.1-0.1,0.2-0.1c-0.1,0.1-0.2,0.2-0.4,0.3c0.3,0,0.4-0.1,0.6-0.3
					c-0.1,0.2-0.3,0.3-0.5,0.4c0,0,0.1,0,0.1,0.1c-0.2,0.1-0.4,0.2-0.6,0.3c0.1,0,0.1,0,0.2,0.1C25.1,22,25,22,24.9,22.1
					c0,0,0.1,0,0.1,0c0,0-0.1,0.1-0.1,0.1c-0.1,0.1-0.3,0.2-0.4,0.3c0.1,0,0.2,0,0.4-0.1c0,0.1,0,0.1-0.1,0.1c0,0-0.1,0.1-0.1,0.1
					c-0.1,0-0.1,0.1-0.2,0.1c-0.1,0-0.2,0.1-0.3,0.1c0.3,0,0.5-0.1,0.8-0.3c-0.1,0.1-0.1,0.1-0.2,0.2c0.1,0,0.3-0.1,0.4-0.2
					c0,0,0.1,0,0.1,0c0,0,0.1,0,0.1,0c-0.1,0.1-0.2,0.2-0.3,0.4c0.1,0,0.2,0,0.3-0.1c0,0,0,0.1-0.1,0.1c-0.2,0.3-0.4,0.4-0.7,0.6
					c0,0,0.1,0,0.2,0c0.1,0,0.1,0,0.2-0.1c0.1,0,0.3-0.2,0.3-0.1c0,0.1-0.2,0.2-0.2,0.2c-0.3,0.2-0.6,0.4-0.9,0.5c0.2,0,0.3,0,0.5,0
					c-0.2,0.2-0.5,0.3-0.7,0.5c-0.1,0.1-0.2,0.1-0.3,0.2c0.2,0,0.3,0,0.5,0c-0.1,0.1-0.2,0.2-0.3,0.2c0.2,0,0.3,0,0.5,0
					c-0.1,0.1-0.1,0.1-0.2,0.2c0.1,0,0.2,0.1,0.3,0.1c0.1,0,0.2,0,0.4-0.1c0.2-0.1-0.4,0.3-0.9,0.5c0.1,0,0.2,0.1,0.4,0.1
					c-0.2,0.1-0.4,0.1-0.6,0.2c0,0,0.1,0,0.1,0.1c-0.1,0.1-0.2,0.1-0.4,0.1c0.1,0,0.3,0.1,0.4,0.1c-0.1,0-0.2,0.1-0.3,0.1
					c0.1,0,0.1,0,0.2,0c-0.1,0.1-0.3,0.1-0.4,0.2c0.2,0,0.4,0,0.5-0.1c0,0-0.1,0.1-0.1,0.1c0.1,0,0.3,0,0.4-0.1
					c-0.1,0.1-0.2,0.2-0.3,0.3c0.2,0,0.5,0.1,0.7,0.1c0.1,0,0.2,0,0.3,0c0,0,0,0,0.1,0.1c0.1,0.1,0.2,0.1,0.2,0.1
					c0.4,0.1,0.7,0.1,1.1,0.1c0.2,0,0.3,0,0.5,0l0-0.1l0,0.1c0.2,0,0.3,0,0.5,0c0.4,0,0.7-0.1,1.1-0.1c0.1,0,0.2,0,0.2-0.1
					c0,0,0,0,0.1-0.1c0.1,0,0.2,0.1,0.4,0.1c0.2,0,0.5,0,0.7-0.1c-0.1-0.1-0.2-0.2-0.3-0.3c0.1,0,0.3,0.1,0.4,0.1
					c0,0-0.1-0.1-0.1-0.1C30,26.2,30.1,26.2,30.3,26.2z"/>
			</g>
			<g>
				<linearGradient id="SVGID_25_" gradientUnits="userSpaceOnUse" x1="19.5634" y1="24.1593" x2="26.2663" y2="24.1593">
					<stop  offset="0" style="stop-color:#00305C"/>
					<stop  offset="1" style="stop-color:#1278AA"/>
				</linearGradient>
				<path class="st24" d="M19.6,28.2c0.1-0.1,0.2-0.1,0.4-0.2c-0.1,0-0.1,0-0.2,0c0.1,0,0.2-0.1,0.3-0.1c-0.1,0-0.3,0-0.4-0.1
					c0.1,0,0.2-0.1,0.3-0.1c0,0-0.1,0-0.1-0.1c0.2,0,0.3-0.1,0.5-0.2c0,0,0,0,0,0c-0.1,0-0.2,0-0.3,0c0.1,0,0.3-0.1,0.4-0.2
					c0,0,0,0,0,0c0,0,0,0,0.1-0.1c-0.1,0-0.2,0.1-0.3,0.1c0.2-0.1,0.4-0.3,0.5-0.5c0,0-0.1,0-0.1,0c-0.1,0-0.2,0-0.3,0
					c0.1-0.1,0.2-0.2,0.3-0.2c0,0,0,0,0,0c-0.2,0.1-0.3,0.1-0.5,0.1c0.2-0.1,0.3-0.2,0.5-0.3c-0.2,0.1-0.4,0.1-0.7,0.1
					c0.1,0,0.2-0.1,0.3-0.1c0.2-0.1,0.3-0.2,0.5-0.3c-0.2,0.1-0.3,0.1-0.5,0.1c0.2,0,0.3-0.1,0.5-0.2c0.1-0.1,0.2-0.1,0.3-0.2
					c0,0,0,0,0,0c0,0,0,0,0,0c-0.2,0-0.3,0-0.5,0c0.2-0.1,0.6-0.2,0.6-0.2c0,0,0.1,0,0.1,0c0,0,0.1-0.1,0.1-0.1c0,0,0,0,0,0
					c0,0,0,0,0,0c0,0,0,0,0,0c-0.1,0-0.2,0.1-0.3,0.1c0.2-0.1,0.3-0.2,0.5-0.4c0,0,0,0,0,0c0-0.1,0.1-0.1,0.1-0.2
					c-0.2,0.2-0.5,0.3-0.7,0.3c0.2-0.2,0.5-0.4,0.7-0.6c0,0,0-0.1,0.1-0.1c-0.1,0.1-0.2,0.1-0.3,0.1c0.1-0.1,0.2-0.3,0.3-0.4
					c-0.1,0-0.1,0-0.2,0c0,0-0.1,0-0.1,0c-0.1,0.1-0.2,0.2-0.4,0.2c0.1-0.1,0.1-0.2,0.2-0.2c-0.2,0.2-0.5,0.3-0.8,0.3
					c0.1-0.1,0.2-0.1,0.3-0.2c0.1,0,0.1-0.1,0.2-0.1c0.1-0.1,0.2-0.2,0.3-0.2c-0.1,0.1-0.2,0.1-0.3,0.1c0.1-0.1,0.2-0.2,0.4-0.3
					c0,0,0.1-0.1,0.1-0.1c0,0-0.1,0-0.1,0c0.1-0.1,0.2-0.1,0.3-0.2c-0.1,0-0.1,0-0.2-0.1c0.2-0.1,0.4-0.2,0.6-0.4
					c0,0-0.1-0.1-0.1-0.1c0.2-0.1,0.4-0.3,0.5-0.5c-0.2,0.2-0.3,0.3-0.6,0.3c0.1-0.1,0.3-0.2,0.4-0.4c0,0,0,0-0.1,0c0,0,0,0,0,0
					c-0.1,0.1-0.1,0.1-0.2,0.1c-0.1,0-0.1,0-0.2,0.1c-0.2,0-0.4,0.1-0.6,0.1c0.2-0.1,0.4-0.3,0.6-0.4c0.1,0,0.1-0.1,0.2-0.1
					c-0.1,0-0.2,0-0.2-0.1c0-0.1,0.2-0.1,0.3-0.1c0.2-0.1,0.3-0.2,0.5-0.3c-0.2,0.1-0.4,0.1-0.6,0.1c0.2-0.2,0.5-0.3,0.7-0.5
					c-0.2,0.1-0.3,0.1-0.5,0.2c0.1-0.1,0.2-0.2,0.3-0.3c-0.2,0.1-0.3,0.2-0.5,0.2c0.1-0.1,0.2-0.2,0.4-0.3c0,0,0,0,0,0
					c0,0,0-0.1,0-0.1c0.1-0.1,0.3-0.2,0.4-0.3c-0.1,0-0.1,0-0.2,0c0.2-0.1,0.3-0.2,0.4-0.3c-0.1,0-0.2,0-0.4,0
					c0.2,0,0.3-0.1,0.5-0.2c-0.2,0.1-0.3,0.1-0.5,0.1c0,0,0,0,0-0.1c0.1,0,0.2,0,0.2,0c0,0-0.1,0-0.1,0c0.1-0.1,0.2-0.2,0.3-0.3
					c0-0.1,0.1-0.1,0.1-0.2c0,0,0.1-0.2,0.1-0.2c0,0,0,0,0,0c0,0,0,0,0,0c0,0,0.1,0.1,0.1,0.2c0,0.1,0.1,0.2,0.1,0.2
					c0.1,0.1,0.2,0.2,0.3,0.3c0,0,0,0-0.1,0c0,0.1,0.2,0.1,0.3,0.2c-0.2,0.1-0.4,0-0.6-0.2c0.1,0.1,0.3,0.3,0.5,0.3
					c-0.1,0-0.1,0-0.2,0c0.1,0.1,0.2,0.2,0.4,0.2c0,0-0.1,0-0.1,0c0.2,0.2,0.4,0.3,0.6,0.5c-0.1,0-0.1-0.1-0.2-0.1
					c0.1,0.1,0.2,0.1,0.3,0.2c0,0-0.1,0-0.2,0c-0.2-0.1-0.3-0.2-0.5-0.3c0.1,0.1,0.2,0.2,0.3,0.4c0,0-0.1,0-0.1,0
					c-0.1-0.1-0.3-0.1-0.4-0.3c0.1,0.1,0.3,0.3,0.4,0.4c-0.1,0-0.1-0.1-0.2-0.1c0.1,0,0.2,0.2,0.3,0.3c0.1,0.1,0.2,0.1,0.3,0.2
					c-0.1,0-0.2,0-0.3,0c0.1,0,0.3,0.1,0.3,0.1c0,0.2-0.2,0.1-0.2,0c0.1,0.1,0.1,0.1,0.2,0.2c0,0,0,0,0,0c0,0,0,0,0,0
					c0.2,0.1,0.4,0.3,0.6,0.4c-0.2,0-0.4,0-0.6-0.1c-0.1,0-0.1,0-0.2-0.1c-0.1,0-0.1-0.1-0.2-0.1c0.1,0.1,0.2,0.2,0.3,0.3
					c-0.3,0-0.4-0.1-0.6-0.3c0.1,0.2,0.3,0.4,0.5,0.5c0,0-0.1,0-0.1,0.1c0.2,0.1,0.4,0.3,0.6,0.4c-0.1,0-0.1,0-0.2,0.1
					c0.1,0.1,0.2,0.1,0.3,0.2c0,0-0.1,0-0.1,0c0,0,0.1,0.1,0.1,0.1c0.1,0.1,0.2,0.2,0.4,0.3c-0.1,0-0.2,0-0.3-0.1
					c0,0.1,0,0.1,0.1,0.1c0,0,0.1,0.1,0.1,0.1c0.1,0,0.1,0.1,0.2,0.1c0.1,0,0.2,0.1,0.3,0.2c-0.3,0-0.5-0.1-0.8-0.3
					c0.1,0.1,0.1,0.1,0.2,0.2c-0.1,0-0.3-0.1-0.4-0.2c0,0-0.1,0-0.1,0c0,0-0.1,0-0.1,0c0.1,0.1,0.2,0.2,0.3,0.4
					c-0.1,0-0.2,0-0.3-0.1c0,0,0,0.1,0.1,0.1c0.2,0.3,0.4,0.5,0.7,0.6c0,0-0.1,0-0.2,0c-0.1,0-0.1,0-0.2-0.1c-0.1,0-0.3-0.2-0.3-0.1
					c0,0.1,0.2,0.2,0.2,0.2c0.3,0.2,0.6,0.4,0.9,0.6c-0.2,0-0.3,0-0.5-0.1c0.2,0.2,0.4,0.4,0.7,0.6c0.1,0.1,0.2,0.1,0.3,0.2
					c-0.2,0-0.3,0-0.5,0c0.1,0.1,0.2,0.2,0.3,0.2c-0.2,0-0.3,0-0.5,0c0.1,0.1,0.1,0.2,0.2,0.2c-0.1,0-0.2,0.1-0.2,0.1
					c-0.1,0-0.2,0-0.3-0.1c-0.2-0.1,0.4,0.3,0.8,0.5c-0.1,0-0.2,0.1-0.3,0.1c0.2,0.1,0.4,0.2,0.5,0.2c0,0-0.1,0-0.1,0.1
					c0.1,0.1,0.2,0.1,0.3,0.1c-0.1,0.1-0.3,0.1-0.4,0.1c0.1,0,0.2,0.1,0.3,0.1c-0.1,0-0.1,0-0.2,0c0.1,0.1,0.2,0.1,0.4,0.2
					c-0.2,0-0.4,0-0.5-0.1c0,0,0.1,0.1,0.1,0.1c-0.1,0-0.3-0.1-0.4-0.1c0.1,0.1,0.2,0.2,0.3,0.3c-0.2,0-0.5,0.1-0.7,0.1
					c-0.1,0-0.2,0-0.3,0c0,0,0,0,0,0.1c-0.1,0.1-0.2,0.1-0.2,0.1c-0.3,0.1-0.7,0.1-1,0.1c-0.2,0-0.3,0-0.5,0l0-0.1l0,0.1
					c-0.2,0-0.3,0-0.5,0c-0.3,0-0.7-0.1-1-0.1c-0.1,0-0.2,0-0.2-0.1c0,0,0,0-0.1-0.1c-0.1,0-0.2,0.1-0.4,0.1c-0.2,0-0.5,0-0.7-0.1
					c0.1-0.1,0.2-0.2,0.3-0.3c-0.1,0.1-0.3,0.1-0.4,0.1c0,0,0.1-0.1,0.1-0.1C19.9,28.2,19.7,28.2,19.6,28.2z"/>
			</g>
		</g>
		<linearGradient id="SVGID_26_" gradientUnits="userSpaceOnUse" x1="8.0093" y1="10.0469" x2="9.301" y2="10.0469">
			<stop  offset="0" style="stop-color:#00305C"/>
			<stop  offset="1" style="stop-color:#1278AA"/>
		</linearGradient>
		<path class="st25" d="M8.7,10.3c0,0-0.1-0.2-0.2-0.3C8.3,9.9,8,9.9,8,9.9s0.3-0.1,0.5,0c0.2,0.1,0.2,0.2,0.2,0.2s0.1,0,0.2-0.1
			c0.1,0,0.4,0.1,0.4,0.1s-0.3,0-0.4,0C8.8,10.1,8.7,10.3,8.7,10.3z"/>
		<linearGradient id="SVGID_27_" gradientUnits="userSpaceOnUse" x1="18.804" y1="6.518" x2="19.4651" y2="6.518">
			<stop  offset="0" style="stop-color:#00305C"/>
			<stop  offset="1" style="stop-color:#1278AA"/>
		</linearGradient>
		<path class="st26" d="M19.1,6.6c0,0-0.1-0.1-0.1-0.1c-0.1,0-0.2,0-0.2,0s0.1-0.1,0.2,0c0.1,0,0.1,0.1,0.1,0.1s0,0,0.1,0
			c0.1,0,0.2,0,0.2,0s-0.2,0-0.2,0C19.2,6.6,19.1,6.6,19.1,6.6z"/>
		<linearGradient id="SVGID_28_" gradientUnits="userSpaceOnUse" x1="28.6819" y1="10.6713" x2="29.343" y2="10.6713">
			<stop  offset="0" style="stop-color:#00305C"/>
			<stop  offset="1" style="stop-color:#1278AA"/>
		</linearGradient>
		<path class="st27" d="M29,10.8c0,0-0.1-0.1-0.1-0.1c-0.1,0-0.2,0-0.2,0s0.1-0.1,0.2,0c0.1,0,0.1,0.1,0.1,0.1s0,0,0.1,0
			c0.1,0,0.2,0,0.2,0s-0.2,0-0.2,0C29.1,10.7,29,10.8,29,10.8z"/>
		<g>
			<linearGradient id="SVGID_29_" gradientUnits="userSpaceOnUse" x1="28.924" y1="6.409" x2="30.9752" y2="6.409">
				<stop  offset="0" style="stop-color:#00305C"/>
				<stop  offset="1" style="stop-color:#1278AA"/>
			</linearGradient>
			<path class="st28" d="M30.2,6.8c0,0-0.4-0.1-0.6-0.1c-0.3,0-0.7,0.3-0.7,0.3s0.3-0.4,0.7-0.5c0.4-0.1,0.5,0,0.5,0s0-0.1,0.2-0.3
				C30.5,6,31,5.9,31,5.9s-0.5,0.3-0.5,0.4C30.3,6.5,30.2,6.8,30.2,6.8z"/>
			<linearGradient id="SVGID_30_" gradientUnits="userSpaceOnUse" x1="30.1952" y1="6.6181" x2="30.4622" y2="6.6181">
				<stop  offset="0" style="stop-color:#00305C"/>
				<stop  offset="1" style="stop-color:#1278AA"/>
			</linearGradient>
			<polyline class="st29" points="30.2,6.7 30.3,6.7 30.5,6.7 30.3,6.6 30.2,6.5 			"/>
		</g>
		<g>
			<linearGradient id="SVGID_31_" gradientUnits="userSpaceOnUse" x1="33.8865" y1="10.1168" x2="36.266" y2="10.1168">
				<stop  offset="0" style="stop-color:#00305C"/>
				<stop  offset="1" style="stop-color:#1278AA"/>
			</linearGradient>
			<path class="st30" d="M34.9,10.6c0,0-0.1-0.6-0.3-0.7c-0.2-0.3-0.7-0.5-0.7-0.5s0.6,0,0.9,0.4c0.3,0.3,0.4,0.6,0.4,0.6
				s0.1,0,0.4,0s0.7,0.5,0.7,0.5s-0.6-0.3-0.7-0.3C35.2,10.5,34.9,10.6,34.9,10.6z"/>
			<linearGradient id="SVGID_32_" gradientUnits="userSpaceOnUse" x1="34.9617" y1="10.6489" x2="35.1284" y2="10.6489">
				<stop  offset="0" style="stop-color:#00305C"/>
				<stop  offset="1" style="stop-color:#1278AA"/>
			</linearGradient>
			<polyline class="st31" points="35,10.5 35,10.7 35.1,10.9 35.1,10.6 35.1,10.4 			"/>
		</g>
		<g>
			<linearGradient id="SVGID_33_" gradientUnits="userSpaceOnUse" x1="22.1843" y1="2.9211" x2="25.8104" y2="2.9211">
				<stop  offset="0" style="stop-color:#00305C"/>
				<stop  offset="1" style="stop-color:#1278AA"/>
			</linearGradient>
			<path class="st32" d="M24.2,3.4c0,0-0.5-0.5-0.8-0.6c-0.4-0.2-1.2-0.1-1.2-0.1s0.7-0.4,1.3-0.2c0.5,0.2,0.8,0.4,0.8,0.4
				s0.1-0.1,0.5-0.2c0.4-0.1,1.1,0.1,1.1,0.1s-0.9,0-1,0.1C24.4,3.1,24.2,3.4,24.2,3.4z"/>
			<linearGradient id="SVGID_34_" gradientUnits="userSpaceOnUse" x1="24.157" y1="3.2788" x2="24.5029" y2="3.2788">
				<stop  offset="0" style="stop-color:#00305C"/>
				<stop  offset="1" style="stop-color:#1278AA"/>
			</linearGradient>
			<polyline class="st33" points="24.2,3.3 24.3,3.4 24.5,3.5 24.3,3.3 24.3,3 			"/>
		</g>
		<g>
			<linearGradient id="SVGID_35_" gradientUnits="userSpaceOnUse" x1="10.4933" y1="4.7568" x2="12.429" y2="4.7568">
				<stop  offset="0" style="stop-color:#00305C"/>
				<stop  offset="1" style="stop-color:#1278AA"/>
			</linearGradient>
			<path class="st34" d="M11.6,5.2c0,0,0.2-0.4,0.3-0.5c0.2-0.2,0.6-0.3,0.6-0.3s-0.5-0.1-0.7,0.1s-0.3,0.4-0.3,0.4s-0.1,0-0.3,0
				s-0.6,0.3-0.6,0.3S11,4.9,11.1,5C11.3,5,11.6,5.2,11.6,5.2z"/>
			<linearGradient id="SVGID_36_" gradientUnits="userSpaceOnUse" x1="11.3955" y1="5.1133" x2="11.5159" y2="5.1133">
				<stop  offset="0" style="stop-color:#00305C"/>
				<stop  offset="1" style="stop-color:#1278AA"/>
			</linearGradient>
			<polyline class="st35" points="11.5,5.1 11.4,5.2 11.4,5.3 11.4,5.1 11.4,5 			"/>
		</g>
	</g>
	<g>
		<path class="st36" d="M9.9,34.9h0.5v2.4h-0.3v0l-1.3-1.6v1.6H8.3v-2.4h0.4l1.2,1.5V34.9z"/>
		<path class="st36" d="M12.5,36.5c0,0.5-0.3,0.9-0.9,0.9s-0.9-0.4-0.9-0.9c0-0.5,0.3-0.9,0.9-0.9C12.1,35.6,12.5,36,12.5,36.5z
			 M11.1,36.5c0,0.3,0.2,0.5,0.5,0.5s0.5-0.2,0.5-0.5c0-0.3-0.2-0.5-0.5-0.5C11.3,36,11.1,36.3,11.1,36.5z"/>
		<path class="st36" d="M13.1,35.7l0,0.2c0.1-0.2,0.3-0.2,0.5-0.2c0.2,0,0.3,0.1,0.4,0.2l-0.2,0.4c-0.1-0.1-0.2-0.1-0.3-0.1
			c-0.2,0-0.4,0.1-0.4,0.4v0.9h-0.4v-1.7H13.1z"/>
		<path class="st36" d="M16,34.9v2.4h-0.4l0-0.2c-0.1,0.2-0.3,0.3-0.6,0.3c-0.5,0-0.9-0.3-0.9-0.9c0-0.6,0.4-0.9,0.9-0.9
			c0.2,0,0.5,0.1,0.6,0.3v-0.9H16z M14.6,36.5c0,0.3,0.2,0.5,0.5,0.5c0.3,0,0.5-0.2,0.5-0.5c0-0.3-0.2-0.5-0.5-0.5
			C14.8,36,14.6,36.2,14.6,36.5z"/>
		<path class="st36" d="M16.9,35.2c0,0.3-0.5,0.3-0.5,0C16.4,34.8,16.9,34.8,16.9,35.2z M16.4,35.6v1.7h0.4v-1.7H16.4z"/>
		<path class="st36" d="M18.7,37.2c-0.2,0.2-0.4,0.3-0.7,0.3c-0.5,0-0.9-0.3-0.9-0.9c0-0.6,0.4-0.9,0.9-0.9c0.2,0,0.4,0.1,0.6,0.3
			l-0.3,0.3C18.3,36.1,18.2,36,18,36c-0.3,0-0.5,0.2-0.5,0.5c0,0.3,0.2,0.5,0.5,0.5c0.1,0,0.3,0,0.4-0.1L18.7,37.2z"/>
		<path class="st36" d="M21.8,37.1c-0.3,0.2-0.6,0.4-0.9,0.4c-0.9,0-1.3-0.6-1.3-1.3c0-0.6,0.4-1.3,1.3-1.3c0.3,0,0.6,0.1,0.9,0.4
			l-0.3,0.3c-0.2-0.2-0.4-0.2-0.6-0.2c-0.6,0-0.8,0.4-0.8,0.8c0,0.4,0.2,0.8,0.8,0.8c0.2,0,0.5-0.1,0.6-0.2L21.8,37.1z"/>
		<path class="st36" d="M23.3,35.7h0.4v1.7h-0.4l0-0.3c-0.1,0.2-0.4,0.3-0.6,0.3c-0.5,0-0.9-0.3-0.9-0.9c0-0.6,0.4-0.9,0.9-0.9
			c0.2,0,0.4,0.1,0.5,0.3L23.3,35.7z M22.3,36.5c0,0.3,0.2,0.5,0.5,0.5c0.7,0,0.7-1,0-1C22.5,36,22.3,36.2,22.3,36.5z"/>
		<path class="st36" d="M25.2,37.4v-0.9c0-0.2-0.1-0.4-0.4-0.4c-0.2,0-0.4,0.2-0.4,0.4v0.9H24v-1.7h0.4l0,0.2
			c0.1-0.2,0.3-0.2,0.5-0.2c0.2,0,0.4,0.1,0.5,0.3c0.2-0.2,0.4-0.3,0.6-0.3c0.5,0,0.7,0.3,0.7,0.8v0.9h-0.4v-0.9
			c0-0.2-0.1-0.4-0.3-0.4s-0.4,0.2-0.4,0.4v0.9H25.2z"/>
		<path class="st36" d="M27.1,38.1v-2.4h0.4l0,0.2c0.1-0.2,0.4-0.3,0.6-0.3c0.5,0,0.9,0.4,0.9,0.9c0,0.5-0.3,0.9-0.9,0.9
			c-0.2,0-0.4-0.1-0.6-0.2v0.9H27.1z M28.6,36.5c0-0.3-0.2-0.5-0.5-0.5c-0.3,0-0.5,0.2-0.5,0.5c0,0.3,0.2,0.5,0.5,0.5
			C28.4,37,28.6,36.8,28.6,36.5z"/>
		<path class="st36" d="M31.8,36.9h-1.3l-0.2,0.5h-0.5l1.1-2.4h0.5l1.1,2.4H32L31.8,36.9z M31.1,35.4l-0.5,1h0.9L31.1,35.4z"/>
		<path class="st36" d="M34.2,35.5c-0.1-0.1-0.3-0.3-0.6-0.3c-0.3,0-0.5,0.1-0.5,0.3c0,0.2,0.3,0.3,0.5,0.3c0.5,0.1,1,0.2,1,0.8
			c0,0.5-0.5,0.8-1,0.8c-0.5,0-0.9-0.2-1.1-0.6l0.4-0.2c0.1,0.3,0.4,0.4,0.7,0.4c0.3,0,0.6-0.1,0.6-0.4c0-0.2-0.2-0.3-0.6-0.4
			c-0.5-0.1-1-0.2-1-0.7c0-0.5,0.5-0.7,0.9-0.7c0.4,0,0.8,0.1,1,0.5L34.2,35.5z"/>
	</g>
	<g>
		<g>
			<polygon class="st37" points="1,21.7 14.4,18.9 36.2,19.4 36.2,20.3 14.3,19.5 1.1,22.1 			"/>
		</g>
		<g>
			<polygon class="st38" points="3.6,29.9 3.4,22.1 16.5,19.7 26.5,20.1 29.7,20.4 37.6,20.8 39.5,21.2 39.6,29.8 37.5,31.3 
				29.9,30.6 26.4,31.9 			"/>
		</g>
		<g>
			<polygon class="st37" points="27.3,21.6 28.5,21.7 28.5,23.5 27.3,23.5 			"/>
		</g>
		<g>
			<polygon class="st37" points="22.7,21.9 25.3,21.8 25.4,26.8 22.8,26.8 			"/>
		</g>
		<g>
			<polygon class="st37" points="20.5,26.7 18.3,26.7 18.2,22.2 20.4,22.1 			"/>
		</g>
		<g>
			<polygon class="st37" points="10.4,22.3 12.5,22.2 12.5,28.2 10.4,28 			"/>
		</g>
		<g>
			<polygon class="st37" points="9,28 7.2,28 7.1,22.4 8.9,22.3 			"/>
		</g>
		<g>
			<polygon class="st39" points="34.3,30.7 34.2,21.3 30.3,21.5 30.3,30.5 			"/>
		</g>
		<g>
			<rect x="30.9" y="22.1" class="st37" width="2.5" height="3.7"/>
		</g>
		<g>
			<path class="st40" d="M25.9,21.2l-3.6,0.2v5.8l3.8,0.1L25.9,21.2z M22.8,26.8l-0.1-4.8l2.6-0.1l0.1,5H22.8z"/>
		</g>
		<g>
			<path class="st41" d="M17.7,21.7v5.5l3.3,0.1v-5.8L17.7,21.7z M18.3,26.7l-0.1-4.5l2.2-0.1l0.1,4.6H18.3z"/>
		</g>
		<g>
			<polygon class="st42" points="3.7,29.9 26.4,31.9 29.9,30.6 37.5,31.3 39.6,29.8 39.6,30.5 37.6,32 29.9,31.4 26.4,32.8 
				3.7,30.6 			"/>
		</g>
		<g>
			<polygon class="st43" points="26.7,31.8 26.5,20.1 26.1,20.1 26.2,31.8 26.4,31.9 			"/>
		</g>
		<g>
			<polygon class="st44" points="26.7,31.8 26.9,31.7 26.8,20.1 26.5,20.1 			"/>
		</g>
		<g>
			<polygon class="st45" points="3.4,21.7 14.3,19.5 16.5,19.7 3.4,22.1 			"/>
		</g>
		<g>
			<polygon class="st46" points="29.6,20.4 29.7,30.7 29.9,30.6 29.8,20.4 			"/>
		</g>
		<g>
			<polygon class="st47" points="29.8,20.4 30.3,20.4 30.3,30.7 29.9,30.6 			"/>
		</g>
		<g>
			<polygon class="st48" points="37.7,20.8 37.9,31 37.5,31.3 37.2,31.2 37.1,20.7 			"/>
		</g>
		<g>
			<polygon class="st49" points="1,21.7 14.4,18.9 36.2,19.4 36.2,19.8 14.4,19.2 1,21.9 			"/>
		</g>
		<g>
			<polygon class="st49" points="1.1,21.9 1.1,22.1 14.3,19.5 36.2,20.3 36.2,20 14.3,19.3 			"/>
		</g>
		<g>
			<polygon class="st49" points="36.2,19.7 39.7,20.7 39.7,20.9 36.2,19.9 			"/>
		</g>
		<g>
			<polygon class="st50" points="36.2,20.1 39.6,21 39.6,20.8 36.2,19.9 			"/>
		</g>
		<g>
			<polygon class="st51" points="39.6,21 39.5,21.2 37.7,20.8 36.2,20.3 36.2,20.1 			"/>
		</g>
		<g>
			<polygon class="st51" points="16.5,19.7 36.2,20.3 37.6,20.8 29.6,20.4 26.4,20.1 			"/>
		</g>
		<g>
			<polygon class="st52" points="3.4,21.7 3.6,29.9 3.8,29.9 3.7,21.6 			"/>
		</g>
		<g>
			<path class="st41" d="M9.1,22.1l-2.3,0.1v6.1l2.4,0.1L9.1,22.1z M7.2,28l-0.1-5.5l1.9-0.1L9,28H7.2z"/>
		</g>
		<g>
			<path class="st41" d="M12.7,21.9l-2.6,0.1v6.4h2.7L12.7,21.9z M12.5,28.2L10.4,28v-5.7l2.1-0.1V28.2z"/>
		</g>
		<g>
			<path class="st37" d="M25.7,27.2l-3.2-0.1l0,0l-0.1-5.4l3.2-0.2l0,0L25.7,27.2z M22.5,27.1l3.2,0.1l-0.1-5.7l-3.2,0.2L22.5,27.1z
				"/>
		</g>
		<g>
			<path class="st37" d="M20.8,27.1L20.8,27.1l-3-0.1v-5.2l2.9-0.1l0,0L20.8,27.1z M17.8,27l2.9,0.1l-0.1-5.3l-2.8,0.1V27z"/>
		</g>
		<g>
			<rect x="11.4" y="22.2" class="st41" width="0.1" height="6"/>
		</g>
		<g>
			<rect x="10.4" y="23.6" class="st41" width="2.1" height="0.1"/>
		</g>
		<g>
			<rect x="10.4" y="25.1" class="st41" width="2.1" height="0.1"/>
		</g>
		<g>
			<rect x="10.3" y="26.6" class="st41" width="2.1" height="0.1"/>
		</g>
		<g>
			<rect x="7.1" y="23.3" class="st41" width="1.9" height="0.1"/>
		</g>
		<g>
			<rect x="7.1" y="25.1" class="st41" width="1.9" height="0.1"/>
		</g>
		<g>
			<rect x="7.1" y="26.5" class="st41" width="1.9" height="0.1"/>
		</g>
		<g>
			
				<rect x="7.1" y="23.7" transform="matrix(0.9988 -4.978070e-02 4.978070e-02 0.9988 -1.1708 0.429)" class="st41" width="1.9" height="0.1"/>
		</g>
		<g>
			<rect x="8" y="22.3" class="st41" width="0.1" height="5.6"/>
		</g>
		<g>
			
				<rect x="19.3" y="22.1" transform="matrix(0.9998 -1.998728e-02 1.998728e-02 0.9998 -0.4848 0.3919)" class="st41" width="0.1" height="4.7"/>
		</g>
		<g>
			
				<rect x="18.2" y="23.6" transform="matrix(0.9998 -1.998728e-02 1.998728e-02 0.9998 -0.4684 0.3913)" class="st41" width="2.3" height="0.1"/>
		</g>
		<g>
			
				<rect x="18.2" y="25.2" transform="matrix(0.9998 -1.998728e-02 1.998728e-02 0.9998 -0.4998 0.3917)" class="st41" width="2.3" height="0.1"/>
		</g>
		<g>
			
				<rect x="24" y="21.9" transform="matrix(0.9998 -1.998728e-02 1.998728e-02 0.9998 -0.4828 0.4854)" class="st41" width="0.1" height="5"/>
		</g>
		<g>
			
				<rect x="22.7" y="23.5" transform="matrix(0.9998 -1.998728e-02 1.998728e-02 0.9998 -0.4649 0.4854)" class="st41" width="2.6" height="0.1"/>
		</g>
		<g>
			
				<rect x="22.8" y="25.1" transform="matrix(0.9998 -1.998728e-02 1.998728e-02 0.9998 -0.4984 0.4862)" class="st41" width="2.6" height="0.1"/>
		</g>
		<g>
			<path class="st53" d="M27,21.2l0.1,2.6l1.7-0.1v-2.4L27,21.2z M28.5,23.5h-1.2v-1.9l1.2,0.1V23.5z"/>
		</g>
		<g>
			<rect x="27.7" y="21.6" class="st53" width="0.1" height="1.9"/>
		</g>
		<g>
			<path class="st53" d="M34.1,30.5L34.1,30.5l-3.7-0.3v-8.7l3.5-0.1l0,0L34.1,30.5z M30.5,30.3l3.6,0.2l-0.2-8.9l-3.5,0.1V30.3z"/>
		</g>
		<g>
			<path class="st53" d="M33.5,29.9L31,29.8v-3.6h2.5V29.9z M31,29.8l2.4,0.1v-3.7H31V29.8z"/>
		</g>
		<g>
			<rect x="32.2" y="22.1" class="st39" width="0.1" height="3.7"/>
		</g>
		<g>
			<rect x="30.9" y="23.3" class="st39" width="2.5" height="0.1"/>
		</g>
		<g>
			<rect x="30.9" y="24.6" class="st39" width="2.5" height="0.1"/>
		</g>
		<g class="st54">
			<polygon class="st55" points="3.7,24.2 14,22.6 26.1,23.7 28.8,30.3 29.7,30.1 29.7,30.7 30.3,30.7 37.1,22.3 37.1,20.7 
				26.4,20.1 16.5,19.7 3.7,22.1 			"/>
		</g>
	</g>
</g>
<g>
	<path d="M56.2,14.9h2.4v12.7h-1.5v0L50.4,19v8.6H48V14.9h1.9l6.2,7.9V14.9z"/>
	<path d="M69.5,23.1c0,2.6-1.8,4.7-4.7,4.7c-2.9,0-4.6-2.1-4.6-4.7c0-2.6,1.8-4.7,4.6-4.7C67.7,18.5,69.5,20.6,69.5,23.1z
		 M62.4,23.1c0,1.4,0.8,2.6,2.4,2.6s2.4-1.3,2.4-2.6c0-1.3-0.9-2.7-2.4-2.7C63.2,20.5,62.4,21.8,62.4,23.1z"/>
	<path d="M73.1,18.7l0.2,1c0.7-1.1,1.6-1.3,2.5-1.3c0.9,0,1.8,0.4,2.3,0.9l-1,1.9c-0.5-0.4-0.9-0.6-1.6-0.6c-1.2,0-2.2,0.6-2.2,2.3
		v4.7H71v-9H73.1z"/>
	<path d="M88.2,14.9v12.7h-2.1L86,26.4c-0.7,1.1-1.8,1.4-2.9,1.4c-2.6,0-4.6-1.7-4.6-4.7c0-3.1,1.9-4.7,4.6-4.7
		c0.9,0,2.4,0.5,2.9,1.4v-5H88.2z M80.7,23.1c0,1.6,1.1,2.6,2.5,2.6c1.4,0,2.6-1,2.6-2.6c0-1.6-1.2-2.6-2.6-2.6
		C81.8,20.5,80.7,21.5,80.7,23.1z"/>
	<path d="M92.6,16.1c0,1.7-2.6,1.7-2.6,0C89.9,14.4,92.6,14.4,92.6,16.1z M90.1,18.6v9h2.2v-9H90.1z"/>
	<path d="M102,26.5c-1,1-2.1,1.4-3.4,1.4c-2.6,0-4.8-1.6-4.8-4.7s2.2-4.7,4.8-4.7c1.3,0,2.3,0.4,3.2,1.3l-1.4,1.5
		c-0.5-0.5-1.2-0.7-1.8-0.7c-1.5,0-2.6,1.1-2.6,2.7c0,1.7,1.2,2.6,2.5,2.6c0.7,0,1.4-0.2,2-0.7L102,26.5z"/>
	<path d="M118.1,26c-1.3,1.3-3,1.9-4.8,1.9c-4.7,0-6.7-3.2-6.7-6.6c0-3.3,2.1-6.7,6.7-6.7c1.7,0,3.4,0.7,4.7,1.9l-1.6,1.5
		c-0.8-0.8-2-1.2-3.1-1.2c-3.1,0-4.4,2.3-4.4,4.4c0,2.1,1.2,4.3,4.4,4.3c1.1,0,2.4-0.5,3.2-1.3L118.1,26z"/>
	<path d="M126,18.7h2.1v9H126l-0.1-1.3c-0.5,1.1-1.9,1.6-2.9,1.6c-2.7,0-4.6-1.6-4.6-4.8c0-3.1,2.1-4.7,4.7-4.7
		c1.2,0,2.3,0.6,2.8,1.5L126,18.7z M120.6,23.1c0,1.7,1.2,2.7,2.7,2.7c3.5,0,3.5-5.4,0-5.4C121.8,20.4,120.6,21.4,120.6,23.1z"/>
	<path d="M135.9,27.6v-4.8c0-1.2-0.6-2.3-1.8-2.3c-1.2,0-1.9,1.1-1.9,2.3v4.8H130v-9h2.1l0.2,1.1c0.5-0.9,1.5-1.2,2.4-1.2
		c1.1,0,2.1,0.4,2.7,1.7c0.8-1.3,1.8-1.6,3-1.6c2.5,0,3.8,1.6,3.8,4.2v4.8h-2.2v-4.8c0-1.2-0.5-2.2-1.7-2.2s-1.9,1-1.9,2.2v4.8
		H135.9z"/>
	<path d="M146.1,31.4V18.7h2.1l0.1,1.2c0.7-1,1.9-1.4,2.9-1.4c2.8,0,4.6,2.1,4.6,4.7c0,2.6-1.7,4.7-4.5,4.7c-0.9,0-2.3-0.3-3-1.3
		v4.8H146.1z M153.6,23.1c0-1.4-0.9-2.5-2.5-2.5c-1.6,0-2.5,1.1-2.5,2.5c0,1.4,1,2.5,2.5,2.5C152.5,25.7,153.6,24.5,153.6,23.1z"/>
	<path d="M170.3,25.2h-6.6l-1.1,2.4h-2.6l5.7-12.7h2.6l5.7,12.7h-2.6L170.3,25.2z M166.9,17.6l-2.4,5.4h4.7L166.9,17.6z"/>
	<path d="M182.7,18c-0.4-0.7-1.6-1.4-3-1.4c-1.8,0-2.6,0.7-2.6,1.7c0,1.1,1.3,1.4,2.8,1.6c2.7,0.3,5.1,1,5.1,4c0,2.8-2.5,4-5.3,4
		c-2.6,0-4.6-0.8-5.5-3.1l2-1c0.6,1.4,2,2,3.6,2c1.5,0,2.9-0.5,2.9-1.9c0-1.2-1.3-1.7-2.9-1.9c-2.6-0.3-5-1-5-3.8
		c0-2.6,2.6-3.7,4.9-3.7c2,0,4,0.6,5,2.5L182.7,18z"/>
</g>
</svg>
